M48
;DRILL file {KiCad (5.0.0)} date 11/08/19 15:30:15
;FORMAT={-:-/ absolute / inch / decimal}
FMAT,2
INCH,TZ
T1C0.0315
T2C0.0354
T3C0.0400
T4C0.0433
T5C0.1200
%
G90
G05
M72
T1
X5.995Y-3.175
X6.295Y-3.175
X5.295Y-4.3766
X5.295Y-4.475
X5.995Y-3.575
X6.295Y-3.575
X4.745Y-3.925
X4.745Y-4.225
X4.845Y-3.925
X4.845Y-4.225
X4.945Y-3.925
X4.945Y-4.225
X5.045Y-3.925
X5.045Y-4.225
X5.145Y-3.925
X5.145Y-4.225
X5.245Y-3.925
X5.245Y-4.225
X5.345Y-3.925
X5.345Y-4.225
X5.445Y-3.925
X5.445Y-4.225
X5.545Y-3.925
X5.545Y-4.225
X5.645Y-3.925
X5.645Y-4.225
X5.745Y-3.925
X5.745Y-4.225
X5.845Y-3.925
X5.845Y-4.225
X5.945Y-3.925
X5.945Y-4.225
X6.045Y-3.925
X6.045Y-4.225
X5.995Y-3.375
X6.295Y-3.375
X5.5029Y-4.425
X5.695Y-4.425
X5.295Y-3.175
X5.595Y-3.175
X5.295Y-3.375
X5.595Y-3.375
X5.895Y-4.3766
X5.895Y-4.475
X5.295Y-3.575
X5.595Y-3.575
T2
X6.47Y-3.125
X6.47Y-3.225
X5.07Y-3.375
X5.07Y-3.475
X5.07Y-3.15
X5.07Y-3.25
X6.47Y-3.625
X6.47Y-3.725
X6.47Y-3.375
X6.47Y-3.475
T3
X6.17Y-2.975
X6.27Y-2.975
X6.37Y-2.975
X6.47Y-2.975
X6.57Y-2.975
X6.67Y-2.975
X6.77Y-2.975
X6.87Y-2.975
X6.37Y-4.875
X6.47Y-4.875
X6.57Y-4.875
X6.67Y-4.875
X6.77Y-4.875
X6.87Y-4.875
X5.47Y-4.875
X5.57Y-4.875
X5.67Y-4.875
X5.77Y-4.875
X5.87Y-4.875
X5.97Y-4.875
X6.07Y-4.875
X6.17Y-4.875
X5.11Y-2.975
X5.21Y-2.975
X5.31Y-2.975
X5.41Y-2.975
X5.51Y-2.975
X5.61Y-2.975
X5.71Y-2.975
X5.81Y-2.975
X5.91Y-2.975
X6.01Y-2.975
T4
X4.6678Y-3.5
X4.6678Y-3.7559
X4.845Y-3.5
X4.845Y-3.7559
T5
X6.97Y-4.675
X6.97Y-3.575
X4.92Y-4.875
X4.97Y-2.975
T0
M30
