G04 #@! TF.GenerationSoftware,KiCad,Pcbnew,(5.0.0)*
G04 #@! TF.CreationDate,2019-11-08T15:30:58-04:00*
G04 #@! TF.ProjectId,Nueva carpeta,4E7565766120636172706574612E6B69,rev?*
G04 #@! TF.SameCoordinates,Original*
G04 #@! TF.FileFunction,Other,User*
%FSLAX46Y46*%
G04 Gerber Fmt 4.6, Leading zero omitted, Abs format (unit mm)*
G04 Created by KiCad (PCBNEW (5.0.0)) date 11/08/19 15:30:58*
%MOMM*%
%LPD*%
G01*
G04 APERTURE LIST*
%ADD10C,0.050000*%
G04 APERTURE END LIST*
D10*
G04 #@! TO.C,D5*
X131028000Y-78860000D02*
X126528000Y-78860000D01*
X126528000Y-78860000D02*
X126528000Y-83710000D01*
X126528000Y-83710000D02*
X131028000Y-83710000D01*
X131028000Y-83710000D02*
X131028000Y-78860000D01*
G04 #@! TO.C,R6*
X133443000Y-79045000D02*
X133443000Y-82245000D01*
X133443000Y-82245000D02*
X143193000Y-82245000D01*
X143193000Y-82245000D02*
X143193000Y-79045000D01*
X143193000Y-79045000D02*
X133443000Y-79045000D01*
G04 #@! TO.C,U1*
X118923000Y-108815000D02*
X155123000Y-108815000D01*
X155123000Y-108815000D02*
X155123000Y-98215000D01*
X155123000Y-98215000D02*
X118923000Y-98215000D01*
X118923000Y-98215000D02*
X118923000Y-108815000D01*
G04 #@! TO.C,SW1*
X117063000Y-96650000D02*
X117063000Y-96900000D01*
X117063000Y-96900000D02*
X117313000Y-96900000D01*
X124563000Y-96650000D02*
X124563000Y-96900000D01*
X124563000Y-96900000D02*
X124313000Y-96900000D01*
X124313000Y-87400000D02*
X124563000Y-87400000D01*
X124563000Y-87400000D02*
X124563000Y-87650000D01*
X117313000Y-87400000D02*
X117063000Y-87400000D01*
X117063000Y-87400000D02*
X117063000Y-87650000D01*
X124563000Y-87650000D02*
X124563000Y-96650000D01*
X117313000Y-87400000D02*
X124313000Y-87400000D01*
X117063000Y-96650000D02*
X117063000Y-87650000D01*
X124313000Y-96900000D02*
X117313000Y-96900000D01*
G04 #@! TO.C,C1*
X151083000Y-114715000D02*
X151083000Y-110115000D01*
X148383000Y-114715000D02*
X151083000Y-114715000D01*
X148383000Y-110115000D02*
X148383000Y-114715000D01*
X151083000Y-110115000D02*
X148383000Y-110115000D01*
G04 #@! TO.C,C2*
X135843000Y-110115000D02*
X133143000Y-110115000D01*
X133143000Y-110115000D02*
X133143000Y-114715000D01*
X133143000Y-114715000D02*
X135843000Y-114715000D01*
X135843000Y-114715000D02*
X135843000Y-110115000D01*
G04 #@! TO.C,Y1*
X148253000Y-115195000D02*
X148253000Y-109595000D01*
X148253000Y-109595000D02*
X136153000Y-109595000D01*
X136153000Y-109595000D02*
X136153000Y-115195000D01*
X136153000Y-115195000D02*
X148253000Y-115195000D01*
G04 #@! TO.C,D1*
X131028000Y-89425000D02*
X131028000Y-84575000D01*
X126528000Y-89425000D02*
X131028000Y-89425000D01*
X126528000Y-84575000D02*
X126528000Y-89425000D01*
X131028000Y-84575000D02*
X126528000Y-84575000D01*
G04 #@! TO.C,D2*
X162088000Y-89415000D02*
X166588000Y-89415000D01*
X166588000Y-89415000D02*
X166588000Y-84565000D01*
X166588000Y-84565000D02*
X162088000Y-84565000D01*
X162088000Y-84565000D02*
X162088000Y-89415000D01*
G04 #@! TO.C,D3*
X162088000Y-78215000D02*
X162088000Y-83065000D01*
X166588000Y-78215000D02*
X162088000Y-78215000D01*
X166588000Y-83065000D02*
X166588000Y-78215000D01*
X162088000Y-83065000D02*
X166588000Y-83065000D01*
G04 #@! TO.C,D4*
X162088000Y-95765000D02*
X166588000Y-95765000D01*
X166588000Y-95765000D02*
X166588000Y-90915000D01*
X166588000Y-90915000D02*
X162088000Y-90915000D01*
X162088000Y-90915000D02*
X162088000Y-95765000D01*
G04 #@! TO.C,R1*
X133443000Y-89205000D02*
X133443000Y-92405000D01*
X133443000Y-92405000D02*
X143193000Y-92405000D01*
X143193000Y-92405000D02*
X143193000Y-89205000D01*
X143193000Y-89205000D02*
X133443000Y-89205000D01*
G04 #@! TO.C,R5*
X160973000Y-89205000D02*
X151223000Y-89205000D01*
X160973000Y-92405000D02*
X160973000Y-89205000D01*
X151223000Y-92405000D02*
X160973000Y-92405000D01*
X151223000Y-89205000D02*
X151223000Y-92405000D01*
G04 #@! TO.C,R2*
X133443000Y-84125000D02*
X133443000Y-87325000D01*
X133443000Y-87325000D02*
X143193000Y-87325000D01*
X143193000Y-87325000D02*
X143193000Y-84125000D01*
X143193000Y-84125000D02*
X133443000Y-84125000D01*
G04 #@! TO.C,R4*
X160973000Y-79045000D02*
X151223000Y-79045000D01*
X160973000Y-82245000D02*
X160973000Y-79045000D01*
X151223000Y-82245000D02*
X160973000Y-82245000D01*
X151223000Y-79045000D02*
X151223000Y-82245000D01*
G04 #@! TO.C,R3*
X151223000Y-84125000D02*
X151223000Y-87325000D01*
X151223000Y-87325000D02*
X160973000Y-87325000D01*
X160973000Y-87325000D02*
X160973000Y-84125000D01*
X160973000Y-84125000D02*
X151223000Y-84125000D01*
G04 #@! TO.C,P1*
X137188000Y-122075000D02*
X137188000Y-125575000D01*
X158488000Y-122075000D02*
X158488000Y-125575000D01*
X137188000Y-122075000D02*
X158488000Y-122075000D01*
X137188000Y-125575000D02*
X158488000Y-125575000D01*
G04 #@! TO.C,P2*
X160048000Y-122075000D02*
X160048000Y-125575000D01*
X176248000Y-122075000D02*
X176248000Y-125575000D01*
X160048000Y-122075000D02*
X176248000Y-122075000D01*
X160048000Y-125575000D02*
X176248000Y-125575000D01*
G04 #@! TO.C,P3*
X128044000Y-73815000D02*
X128044000Y-77315000D01*
X154444000Y-73815000D02*
X154444000Y-77315000D01*
X128044000Y-73815000D02*
X154444000Y-73815000D01*
X128044000Y-77315000D02*
X154444000Y-77315000D01*
G04 #@! TO.C,P4*
X154968000Y-73815000D02*
X154968000Y-77315000D01*
X176268000Y-73815000D02*
X176268000Y-77315000D01*
X154968000Y-73815000D02*
X176268000Y-73815000D01*
X154968000Y-77315000D02*
X176268000Y-77315000D01*
G04 #@! TD*
M02*
