G04 #@! TF.GenerationSoftware,KiCad,Pcbnew,(5.0.0)*
G04 #@! TF.CreationDate,2019-11-08T15:30:58-04:00*
G04 #@! TF.ProjectId,Nueva carpeta,4E7565766120636172706574612E6B69,rev?*
G04 #@! TF.SameCoordinates,Original*
G04 #@! TF.FileFunction,Soldermask,Bot*
G04 #@! TF.FilePolarity,Negative*
%FSLAX46Y46*%
G04 Gerber Fmt 4.6, Leading zero omitted, Abs format (unit mm)*
G04 Created by KiCad (PCBNEW (5.0.0)) date 11/08/19 15:30:58*
%MOMM*%
%LPD*%
G01*
G04 APERTURE LIST*
%ADD10R,1.800000X1.800000*%
%ADD11C,1.800000*%
%ADD12C,1.600000*%
%ADD13O,1.600000X1.600000*%
%ADD14R,1.600000X2.400000*%
%ADD15O,1.600000X2.400000*%
%ADD16C,2.000000*%
%ADD17C,1.500000*%
%ADD18O,1.727200X2.032000*%
%ADD19C,4.064000*%
G04 APERTURE END LIST*
D10*
G04 #@! TO.C,D5*
X128778000Y-80010000D03*
D11*
X128778000Y-82550000D03*
G04 #@! TD*
D12*
G04 #@! TO.C,R6*
X134493000Y-80645000D03*
D13*
X142113000Y-80645000D03*
G04 #@! TD*
D14*
G04 #@! TO.C,U1*
X120523000Y-107315000D03*
D15*
X153543000Y-99695000D03*
X123063000Y-107315000D03*
X151003000Y-99695000D03*
X125603000Y-107315000D03*
X148463000Y-99695000D03*
X128143000Y-107315000D03*
X145923000Y-99695000D03*
X130683000Y-107315000D03*
X143383000Y-99695000D03*
X133223000Y-107315000D03*
X140843000Y-99695000D03*
X135763000Y-107315000D03*
X138303000Y-99695000D03*
X138303000Y-107315000D03*
X135763000Y-99695000D03*
X140843000Y-107315000D03*
X133223000Y-99695000D03*
X143383000Y-107315000D03*
X130683000Y-99695000D03*
X145923000Y-107315000D03*
X128143000Y-99695000D03*
X148463000Y-107315000D03*
X125603000Y-99695000D03*
X151003000Y-107315000D03*
X123063000Y-99695000D03*
X153543000Y-107315000D03*
X120523000Y-99695000D03*
G04 #@! TD*
D16*
G04 #@! TO.C,SW1*
X118563000Y-88900000D03*
X123063000Y-88900000D03*
X118563000Y-95400000D03*
X123063000Y-95400000D03*
G04 #@! TD*
D12*
G04 #@! TO.C,C1*
X149733000Y-113665000D03*
X149733000Y-111165000D03*
G04 #@! TD*
G04 #@! TO.C,C2*
X134493000Y-111165000D03*
X134493000Y-113665000D03*
G04 #@! TD*
D17*
G04 #@! TO.C,Y1*
X144653000Y-112395000D03*
X139773000Y-112395000D03*
G04 #@! TD*
D11*
G04 #@! TO.C,D1*
X128778000Y-88265000D03*
D10*
X128778000Y-85725000D03*
G04 #@! TD*
G04 #@! TO.C,D2*
X164338000Y-88265000D03*
D11*
X164338000Y-85725000D03*
G04 #@! TD*
G04 #@! TO.C,D3*
X164338000Y-79375000D03*
D10*
X164338000Y-81915000D03*
G04 #@! TD*
G04 #@! TO.C,D4*
X164338000Y-94615000D03*
D11*
X164338000Y-92075000D03*
G04 #@! TD*
D12*
G04 #@! TO.C,R1*
X134493000Y-90805000D03*
D13*
X142113000Y-90805000D03*
G04 #@! TD*
G04 #@! TO.C,R5*
X159893000Y-90805000D03*
D12*
X152273000Y-90805000D03*
G04 #@! TD*
G04 #@! TO.C,R2*
X134493000Y-85725000D03*
D13*
X142113000Y-85725000D03*
G04 #@! TD*
G04 #@! TO.C,R4*
X159893000Y-80645000D03*
D12*
X152273000Y-80645000D03*
G04 #@! TD*
G04 #@! TO.C,R3*
X152273000Y-85725000D03*
D13*
X159893000Y-85725000D03*
G04 #@! TD*
D18*
G04 #@! TO.C,P1*
X138938000Y-123825000D03*
X141478000Y-123825000D03*
X144018000Y-123825000D03*
X146558000Y-123825000D03*
X149098000Y-123825000D03*
X151638000Y-123825000D03*
X154178000Y-123825000D03*
X156718000Y-123825000D03*
G04 #@! TD*
G04 #@! TO.C,P2*
X161798000Y-123825000D03*
X164338000Y-123825000D03*
X166878000Y-123825000D03*
X169418000Y-123825000D03*
X171958000Y-123825000D03*
X174498000Y-123825000D03*
G04 #@! TD*
G04 #@! TO.C,P3*
X129794000Y-75565000D03*
X132334000Y-75565000D03*
X134874000Y-75565000D03*
X137414000Y-75565000D03*
X139954000Y-75565000D03*
X142494000Y-75565000D03*
X145034000Y-75565000D03*
X147574000Y-75565000D03*
X150114000Y-75565000D03*
X152654000Y-75565000D03*
G04 #@! TD*
G04 #@! TO.C,P4*
X156718000Y-75565000D03*
X159258000Y-75565000D03*
X161798000Y-75565000D03*
X164338000Y-75565000D03*
X166878000Y-75565000D03*
X169418000Y-75565000D03*
X171958000Y-75565000D03*
X174498000Y-75565000D03*
G04 #@! TD*
D19*
G04 #@! TO.C,P5*
X124968000Y-123825000D03*
G04 #@! TD*
G04 #@! TO.C,P6*
X177038000Y-118745000D03*
G04 #@! TD*
G04 #@! TO.C,P7*
X126238000Y-75565000D03*
G04 #@! TD*
G04 #@! TO.C,P8*
X177038000Y-90805000D03*
G04 #@! TD*
M02*
