G04 #@! TF.GenerationSoftware,KiCad,Pcbnew,(5.0.0)*
G04 #@! TF.CreationDate,2019-11-08T15:30:58-04:00*
G04 #@! TF.ProjectId,Nueva carpeta,4E7565766120636172706574612E6B69,rev?*
G04 #@! TF.SameCoordinates,Original*
G04 #@! TF.FileFunction,Copper,L2,Bot,Signal*
G04 #@! TF.FilePolarity,Positive*
%FSLAX46Y46*%
G04 Gerber Fmt 4.6, Leading zero omitted, Abs format (unit mm)*
G04 Created by KiCad (PCBNEW (5.0.0)) date 11/08/19 15:30:58*
%MOMM*%
%LPD*%
G01*
G04 APERTURE LIST*
G04 #@! TA.AperFunction,ComponentPad*
%ADD10R,1.800000X1.800000*%
G04 #@! TD*
G04 #@! TA.AperFunction,ComponentPad*
%ADD11C,1.800000*%
G04 #@! TD*
G04 #@! TA.AperFunction,ComponentPad*
%ADD12C,1.600000*%
G04 #@! TD*
G04 #@! TA.AperFunction,ComponentPad*
%ADD13O,1.600000X1.600000*%
G04 #@! TD*
G04 #@! TA.AperFunction,ComponentPad*
%ADD14R,1.600000X2.400000*%
G04 #@! TD*
G04 #@! TA.AperFunction,ComponentPad*
%ADD15O,1.600000X2.400000*%
G04 #@! TD*
G04 #@! TA.AperFunction,ComponentPad*
%ADD16C,2.000000*%
G04 #@! TD*
G04 #@! TA.AperFunction,ComponentPad*
%ADD17C,1.500000*%
G04 #@! TD*
G04 #@! TA.AperFunction,ComponentPad*
%ADD18O,1.727200X2.032000*%
G04 #@! TD*
G04 #@! TA.AperFunction,ComponentPad*
%ADD19C,4.064000*%
G04 #@! TD*
G04 #@! TA.AperFunction,Conductor*
%ADD20C,0.800000*%
G04 #@! TD*
G04 #@! TA.AperFunction,Conductor*
%ADD21C,0.254000*%
G04 #@! TD*
G04 APERTURE END LIST*
D10*
G04 #@! TO.P,D5,1*
G04 #@! TO.N,GND*
X128778000Y-80010000D03*
D11*
G04 #@! TO.P,D5,2*
G04 #@! TO.N,Net-(D5-Pad2)*
X128778000Y-82550000D03*
G04 #@! TD*
D12*
G04 #@! TO.P,R6,1*
G04 #@! TO.N,Net-(D5-Pad2)*
X134493000Y-80645000D03*
D13*
G04 #@! TO.P,R6,2*
G04 #@! TO.N,/13(SCK)*
X142113000Y-80645000D03*
G04 #@! TD*
D14*
G04 #@! TO.P,U1,1*
G04 #@! TO.N,/10(\002A\002A/SS)*
X120523000Y-107315000D03*
D15*
G04 #@! TO.P,U1,15*
G04 #@! TO.N,Net-(U1-Pad15)*
X153543000Y-99695000D03*
G04 #@! TO.P,U1,2*
G04 #@! TO.N,Net-(U1-Pad2)*
X123063000Y-107315000D03*
G04 #@! TO.P,U1,16*
G04 #@! TO.N,Net-(U1-Pad16)*
X151003000Y-99695000D03*
G04 #@! TO.P,U1,3*
G04 #@! TO.N,Net-(U1-Pad3)*
X125603000Y-107315000D03*
G04 #@! TO.P,U1,17*
G04 #@! TO.N,/11(\002A\002A/MOSI)*
X148463000Y-99695000D03*
G04 #@! TO.P,U1,4*
G04 #@! TO.N,Net-(U1-Pad4)*
X128143000Y-107315000D03*
G04 #@! TO.P,U1,18*
G04 #@! TO.N,/12(MISO)*
X145923000Y-99695000D03*
G04 #@! TO.P,U1,5*
G04 #@! TO.N,Net-(U1-Pad5)*
X130683000Y-107315000D03*
G04 #@! TO.P,U1,19*
G04 #@! TO.N,/13(SCK)*
X143383000Y-99695000D03*
G04 #@! TO.P,U1,6*
G04 #@! TO.N,Net-(U1-Pad6)*
X133223000Y-107315000D03*
G04 #@! TO.P,U1,20*
G04 #@! TO.N,+5V*
X140843000Y-99695000D03*
G04 #@! TO.P,U1,7*
X135763000Y-107315000D03*
G04 #@! TO.P,U1,21*
G04 #@! TO.N,Net-(U1-Pad21)*
X138303000Y-99695000D03*
G04 #@! TO.P,U1,8*
G04 #@! TO.N,GND*
X138303000Y-107315000D03*
G04 #@! TO.P,U1,22*
X135763000Y-99695000D03*
G04 #@! TO.P,U1,9*
G04 #@! TO.N,/XTAL1*
X140843000Y-107315000D03*
G04 #@! TO.P,U1,23*
G04 #@! TO.N,Net-(U1-Pad23)*
X133223000Y-99695000D03*
G04 #@! TO.P,U1,10*
G04 #@! TO.N,/XTAL2*
X143383000Y-107315000D03*
G04 #@! TO.P,U1,24*
G04 #@! TO.N,Net-(U1-Pad24)*
X130683000Y-99695000D03*
G04 #@! TO.P,U1,11*
G04 #@! TO.N,Net-(U1-Pad11)*
X145923000Y-107315000D03*
G04 #@! TO.P,U1,25*
G04 #@! TO.N,Net-(U1-Pad25)*
X128143000Y-99695000D03*
G04 #@! TO.P,U1,12*
G04 #@! TO.N,Net-(U1-Pad12)*
X148463000Y-107315000D03*
G04 #@! TO.P,U1,26*
G04 #@! TO.N,Net-(U1-Pad26)*
X125603000Y-99695000D03*
G04 #@! TO.P,U1,13*
G04 #@! TO.N,Net-(U1-Pad13)*
X151003000Y-107315000D03*
G04 #@! TO.P,U1,27*
G04 #@! TO.N,Net-(U1-Pad27)*
X123063000Y-99695000D03*
G04 #@! TO.P,U1,14*
G04 #@! TO.N,Net-(U1-Pad14)*
X153543000Y-107315000D03*
G04 #@! TO.P,U1,28*
G04 #@! TO.N,Net-(U1-Pad28)*
X120523000Y-99695000D03*
G04 #@! TD*
D16*
G04 #@! TO.P,SW1,2*
G04 #@! TO.N,GND*
X118563000Y-88900000D03*
G04 #@! TO.P,SW1,1*
G04 #@! TO.N,/10(\002A\002A/SS)*
X123063000Y-88900000D03*
G04 #@! TO.P,SW1,2*
G04 #@! TO.N,GND*
X118563000Y-95400000D03*
G04 #@! TO.P,SW1,1*
G04 #@! TO.N,/10(\002A\002A/SS)*
X123063000Y-95400000D03*
G04 #@! TD*
D12*
G04 #@! TO.P,C1,2*
G04 #@! TO.N,GND*
X149733000Y-113665000D03*
G04 #@! TO.P,C1,1*
G04 #@! TO.N,/XTAL2*
X149733000Y-111165000D03*
G04 #@! TD*
G04 #@! TO.P,C2,1*
G04 #@! TO.N,/XTAL1*
X134493000Y-111165000D03*
G04 #@! TO.P,C2,2*
G04 #@! TO.N,GND*
X134493000Y-113665000D03*
G04 #@! TD*
D17*
G04 #@! TO.P,Y1,1*
G04 #@! TO.N,/XTAL2*
X144653000Y-112395000D03*
G04 #@! TO.P,Y1,2*
G04 #@! TO.N,/XTAL1*
X139773000Y-112395000D03*
G04 #@! TD*
D11*
G04 #@! TO.P,D1,2*
G04 #@! TO.N,+5V*
X128778000Y-88265000D03*
D10*
G04 #@! TO.P,D1,1*
G04 #@! TO.N,Net-(D1-Pad1)*
X128778000Y-85725000D03*
G04 #@! TD*
G04 #@! TO.P,D2,1*
G04 #@! TO.N,GND*
X164338000Y-88265000D03*
D11*
G04 #@! TO.P,D2,2*
G04 #@! TO.N,Net-(D2-Pad2)*
X164338000Y-85725000D03*
G04 #@! TD*
G04 #@! TO.P,D3,2*
G04 #@! TO.N,Net-(D3-Pad2)*
X164338000Y-79375000D03*
D10*
G04 #@! TO.P,D3,1*
G04 #@! TO.N,GND*
X164338000Y-81915000D03*
G04 #@! TD*
G04 #@! TO.P,D4,1*
G04 #@! TO.N,GND*
X164338000Y-94615000D03*
D11*
G04 #@! TO.P,D4,2*
G04 #@! TO.N,Net-(D4-Pad2)*
X164338000Y-92075000D03*
G04 #@! TD*
D12*
G04 #@! TO.P,R1,1*
G04 #@! TO.N,/10(\002A\002A/SS)*
X134493000Y-90805000D03*
D13*
G04 #@! TO.P,R1,2*
G04 #@! TO.N,+5V*
X142113000Y-90805000D03*
G04 #@! TD*
G04 #@! TO.P,R5,2*
G04 #@! TO.N,Net-(D4-Pad2)*
X159893000Y-90805000D03*
D12*
G04 #@! TO.P,R5,1*
G04 #@! TO.N,/7*
X152273000Y-90805000D03*
G04 #@! TD*
G04 #@! TO.P,R2,1*
G04 #@! TO.N,Net-(D1-Pad1)*
X134493000Y-85725000D03*
D13*
G04 #@! TO.P,R2,2*
G04 #@! TO.N,GND*
X142113000Y-85725000D03*
G04 #@! TD*
G04 #@! TO.P,R4,2*
G04 #@! TO.N,Net-(D3-Pad2)*
X159893000Y-80645000D03*
D12*
G04 #@! TO.P,R4,1*
G04 #@! TO.N,/8*
X152273000Y-80645000D03*
G04 #@! TD*
G04 #@! TO.P,R3,1*
G04 #@! TO.N,/9(\002A\002A)*
X152273000Y-85725000D03*
D13*
G04 #@! TO.P,R3,2*
G04 #@! TO.N,Net-(D2-Pad2)*
X159893000Y-85725000D03*
G04 #@! TD*
D18*
G04 #@! TO.P,P1,1*
G04 #@! TO.N,Net-(P1-Pad1)*
X138938000Y-123825000D03*
G04 #@! TO.P,P1,2*
G04 #@! TO.N,/IOREF*
X141478000Y-123825000D03*
G04 #@! TO.P,P1,3*
G04 #@! TO.N,/Reset*
X144018000Y-123825000D03*
G04 #@! TO.P,P1,4*
G04 #@! TO.N,+3V3*
X146558000Y-123825000D03*
G04 #@! TO.P,P1,5*
G04 #@! TO.N,+5V*
X149098000Y-123825000D03*
G04 #@! TO.P,P1,6*
G04 #@! TO.N,GND*
X151638000Y-123825000D03*
G04 #@! TO.P,P1,7*
X154178000Y-123825000D03*
G04 #@! TO.P,P1,8*
G04 #@! TO.N,/Vin*
X156718000Y-123825000D03*
G04 #@! TD*
G04 #@! TO.P,P2,1*
G04 #@! TO.N,/A0*
X161798000Y-123825000D03*
G04 #@! TO.P,P2,2*
G04 #@! TO.N,/A1*
X164338000Y-123825000D03*
G04 #@! TO.P,P2,3*
G04 #@! TO.N,/A2*
X166878000Y-123825000D03*
G04 #@! TO.P,P2,4*
G04 #@! TO.N,/A3*
X169418000Y-123825000D03*
G04 #@! TO.P,P2,5*
G04 #@! TO.N,/A4(SDA)*
X171958000Y-123825000D03*
G04 #@! TO.P,P2,6*
G04 #@! TO.N,/A5(SCL)*
X174498000Y-123825000D03*
G04 #@! TD*
G04 #@! TO.P,P3,1*
G04 #@! TO.N,Net-(P3-Pad1)*
X129794000Y-75565000D03*
G04 #@! TO.P,P3,2*
G04 #@! TO.N,Net-(P3-Pad2)*
X132334000Y-75565000D03*
G04 #@! TO.P,P3,3*
G04 #@! TO.N,/AREF*
X134874000Y-75565000D03*
G04 #@! TO.P,P3,4*
G04 #@! TO.N,GND*
X137414000Y-75565000D03*
G04 #@! TO.P,P3,5*
G04 #@! TO.N,/13(SCK)*
X139954000Y-75565000D03*
G04 #@! TO.P,P3,6*
G04 #@! TO.N,/12(MISO)*
X142494000Y-75565000D03*
G04 #@! TO.P,P3,7*
G04 #@! TO.N,/11(\002A\002A/MOSI)*
X145034000Y-75565000D03*
G04 #@! TO.P,P3,8*
G04 #@! TO.N,/10(\002A\002A/SS)*
X147574000Y-75565000D03*
G04 #@! TO.P,P3,9*
G04 #@! TO.N,/9(\002A\002A)*
X150114000Y-75565000D03*
G04 #@! TO.P,P3,10*
G04 #@! TO.N,/8*
X152654000Y-75565000D03*
G04 #@! TD*
G04 #@! TO.P,P4,1*
G04 #@! TO.N,/7*
X156718000Y-75565000D03*
G04 #@! TO.P,P4,2*
G04 #@! TO.N,/6(\002A\002A)*
X159258000Y-75565000D03*
G04 #@! TO.P,P4,3*
G04 #@! TO.N,/5(\002A\002A)*
X161798000Y-75565000D03*
G04 #@! TO.P,P4,4*
G04 #@! TO.N,/4*
X164338000Y-75565000D03*
G04 #@! TO.P,P4,5*
G04 #@! TO.N,/3(\002A\002A)*
X166878000Y-75565000D03*
G04 #@! TO.P,P4,6*
G04 #@! TO.N,/2*
X169418000Y-75565000D03*
G04 #@! TO.P,P4,7*
G04 #@! TO.N,/1(Tx)*
X171958000Y-75565000D03*
G04 #@! TO.P,P4,8*
G04 #@! TO.N,/0(Rx)*
X174498000Y-75565000D03*
G04 #@! TD*
D19*
G04 #@! TO.P,P5,1*
G04 #@! TO.N,Net-(P5-Pad1)*
X124968000Y-123825000D03*
G04 #@! TD*
G04 #@! TO.P,P6,1*
G04 #@! TO.N,Net-(P6-Pad1)*
X177038000Y-118745000D03*
G04 #@! TD*
G04 #@! TO.P,P7,1*
G04 #@! TO.N,Net-(P7-Pad1)*
X126238000Y-75565000D03*
G04 #@! TD*
G04 #@! TO.P,P8,1*
G04 #@! TO.N,Net-(P8-Pad1)*
X177038000Y-90805000D03*
G04 #@! TD*
D20*
G04 #@! TO.N,GND*
X130478000Y-80010000D02*
X128778000Y-80010000D01*
X132651257Y-80010000D02*
X130478000Y-80010000D01*
X137096257Y-75565000D02*
X132651257Y-80010000D01*
X137414000Y-75565000D02*
X137096257Y-75565000D01*
X127453000Y-80010000D02*
X128778000Y-80010000D01*
X118563000Y-88900000D02*
X127453000Y-80010000D01*
X137414000Y-81026000D02*
X142113000Y-85725000D01*
X137414000Y-75565000D02*
X137414000Y-81026000D01*
X118563000Y-95400000D02*
X118563000Y-88900000D01*
X135763000Y-92075000D02*
X142113000Y-85725000D01*
X135763000Y-99695000D02*
X135763000Y-92075000D01*
X165838001Y-86764999D02*
X164338000Y-88265000D01*
X165838001Y-83415001D02*
X165838001Y-86764999D01*
X164338000Y-81915000D02*
X165838001Y-83415001D01*
X165838001Y-93114999D02*
X164338000Y-94615000D01*
X165838001Y-89765001D02*
X165838001Y-93114999D01*
X164338000Y-88265000D02*
X165838001Y-89765001D01*
X162638000Y-94615000D02*
X164338000Y-94615000D01*
X155757990Y-101495010D02*
X162638000Y-94615000D01*
X137163010Y-101495010D02*
X155757990Y-101495010D01*
X135763000Y-100095000D02*
X137163010Y-101495010D01*
X135763000Y-100095000D02*
X135763000Y-99695000D01*
X137363000Y-101695000D02*
X135763000Y-100095000D01*
X137763000Y-101695000D02*
X137363000Y-101695000D01*
X138303000Y-102235000D02*
X137763000Y-101695000D01*
X138303000Y-107315000D02*
X138303000Y-102235000D01*
X135692914Y-109764999D02*
X132043001Y-109764999D01*
X138303000Y-107315000D02*
X138142913Y-107315000D01*
X138142913Y-107315000D02*
X135692914Y-109764999D01*
X132043001Y-109764999D02*
X132043001Y-113120001D01*
X132588000Y-113665000D02*
X134493000Y-113665000D01*
X132043001Y-113120001D02*
X132588000Y-113665000D01*
X134493000Y-114796370D02*
X137806630Y-118110000D01*
X134493000Y-113665000D02*
X134493000Y-114796370D01*
X137806630Y-118110000D02*
X146558000Y-118110000D01*
X146558000Y-116840000D02*
X149733000Y-113665000D01*
X146558000Y-118110000D02*
X146558000Y-116840000D01*
X154178000Y-123825000D02*
X151638000Y-123825000D01*
X151638000Y-123672600D02*
X151638000Y-123825000D01*
X149974400Y-122009000D02*
X151638000Y-123672600D01*
X149822000Y-122009000D02*
X149974400Y-122009000D01*
X149733000Y-121920000D02*
X149822000Y-122009000D01*
X149733000Y-113665000D02*
X149733000Y-121920000D01*
G04 #@! TO.N,/9(\002A\002A)*
X150114000Y-83566000D02*
X152273000Y-85725000D01*
X150114000Y-75565000D02*
X150114000Y-83566000D01*
G04 #@! TO.N,/8*
X152654000Y-80264000D02*
X152273000Y-80645000D01*
X152654000Y-75565000D02*
X152654000Y-80264000D01*
G04 #@! TO.N,/7*
X156718000Y-86360000D02*
X152273000Y-90805000D01*
X156718000Y-75565000D02*
X156718000Y-86360000D01*
G04 #@! TO.N,/13(SCK)*
X139954000Y-78486000D02*
X142113000Y-80645000D01*
X139954000Y-75565000D02*
X139954000Y-78486000D01*
X143383000Y-97695000D02*
X143383000Y-99695000D01*
X143513001Y-97564999D02*
X143383000Y-97695000D01*
X143513001Y-82045001D02*
X143513001Y-97564999D01*
X142113000Y-80645000D02*
X143513001Y-82045001D01*
G04 #@! TO.N,/10(\002A\002A/SS)*
X120838086Y-97000001D02*
X116713000Y-101125087D01*
X123063000Y-95400000D02*
X121462999Y-97000001D01*
X121462999Y-97000001D02*
X120838086Y-97000001D01*
X116713000Y-101125087D02*
X116713000Y-104140000D01*
X116713000Y-104140000D02*
X117348000Y-104775000D01*
X120523000Y-106915000D02*
X120523000Y-107315000D01*
X118383000Y-104775000D02*
X120523000Y-106915000D01*
X117348000Y-104775000D02*
X118383000Y-104775000D01*
X123063000Y-95400000D02*
X123063000Y-88900000D01*
X127658000Y-90805000D02*
X123063000Y-95400000D01*
X134493000Y-90805000D02*
X127658000Y-90805000D01*
G04 #@! TO.N,/12(MISO)*
X145923000Y-97695000D02*
X145923000Y-99695000D01*
X145923000Y-80810000D02*
X145923000Y-97695000D01*
X142494000Y-77381000D02*
X145923000Y-80810000D01*
X142494000Y-75565000D02*
X142494000Y-77381000D01*
G04 #@! TO.N,/11(\002A\002A/MOSI)*
X148463000Y-97695000D02*
X148463000Y-99695000D01*
X148463000Y-80810000D02*
X148463000Y-97695000D01*
X145034000Y-77381000D02*
X148463000Y-80810000D01*
X145034000Y-75565000D02*
X145034000Y-77381000D01*
G04 #@! TO.N,Net-(D1-Pad1)*
X128778000Y-85725000D02*
X134493000Y-85725000D01*
G04 #@! TO.N,/XTAL2*
X143383000Y-111125000D02*
X144653000Y-112395000D01*
X143383000Y-107315000D02*
X143383000Y-111125000D01*
X145883000Y-111165000D02*
X144653000Y-112395000D01*
X149733000Y-111165000D02*
X145883000Y-111165000D01*
G04 #@! TO.N,/XTAL1*
X140843000Y-111325000D02*
X139773000Y-112395000D01*
X140843000Y-107315000D02*
X140843000Y-111325000D01*
X138543000Y-111165000D02*
X139773000Y-112395000D01*
X134493000Y-111165000D02*
X138543000Y-111165000D01*
G04 #@! TO.N,Net-(D4-Pad2)*
X161163000Y-92075000D02*
X159893000Y-90805000D01*
X164338000Y-92075000D02*
X161163000Y-92075000D01*
G04 #@! TO.N,Net-(D5-Pad2)*
X132588000Y-82550000D02*
X128778000Y-82550000D01*
X134493000Y-80645000D02*
X132588000Y-82550000D01*
G04 #@! TO.N,Net-(D3-Pad2)*
X161163000Y-79375000D02*
X164338000Y-79375000D01*
X159893000Y-80645000D02*
X161163000Y-79375000D01*
G04 #@! TO.N,Net-(D2-Pad2)*
X159893000Y-85725000D02*
X164338000Y-85725000D01*
G04 #@! TD*
D21*
G04 #@! TO.N,GND*
G36*
X123977026Y-74054266D02*
X123571000Y-75034501D01*
X123571000Y-76095499D01*
X123977026Y-77075734D01*
X124727266Y-77825974D01*
X125707501Y-78232000D01*
X126768499Y-78232000D01*
X127748734Y-77825974D01*
X128498974Y-77075734D01*
X128652156Y-76705918D01*
X128713570Y-76797830D01*
X129209276Y-77129050D01*
X129794000Y-77245359D01*
X130378725Y-77129050D01*
X130874430Y-76797830D01*
X131064000Y-76514119D01*
X131253570Y-76797830D01*
X131749276Y-77129050D01*
X132334000Y-77245359D01*
X132918725Y-77129050D01*
X133414430Y-76797830D01*
X133604000Y-76514119D01*
X133793570Y-76797830D01*
X134289276Y-77129050D01*
X134874000Y-77245359D01*
X135458725Y-77129050D01*
X135954430Y-76797830D01*
X136147909Y-76508267D01*
X136511964Y-76915732D01*
X137039209Y-77169709D01*
X137054974Y-77172358D01*
X137287000Y-77051217D01*
X137287000Y-75692000D01*
X137267000Y-75692000D01*
X137267000Y-75438000D01*
X137287000Y-75438000D01*
X137287000Y-74078783D01*
X137054974Y-73957642D01*
X137039209Y-73960291D01*
X136511964Y-74214268D01*
X136147910Y-74621732D01*
X135954430Y-74332170D01*
X135458724Y-74000950D01*
X134874000Y-73884641D01*
X134289275Y-74000950D01*
X133793570Y-74332170D01*
X133604000Y-74615881D01*
X133414430Y-74332170D01*
X132918724Y-74000950D01*
X132334000Y-73884641D01*
X131749275Y-74000950D01*
X131253570Y-74332170D01*
X131064000Y-74615881D01*
X130874430Y-74332170D01*
X130378724Y-74000950D01*
X129794000Y-73884641D01*
X129209275Y-74000950D01*
X128713570Y-74332170D01*
X128652156Y-74424082D01*
X128498974Y-74054266D01*
X128179708Y-73735000D01*
X175219910Y-73735000D01*
X176328001Y-74843092D01*
X176328000Y-85909076D01*
X176314091Y-85979000D01*
X176328000Y-86048924D01*
X176328000Y-86048925D01*
X176369195Y-86256027D01*
X176526119Y-86490880D01*
X176585402Y-86530492D01*
X178868001Y-88813092D01*
X178868001Y-88863293D01*
X178548734Y-88544026D01*
X177568499Y-88138000D01*
X176507501Y-88138000D01*
X175527266Y-88544026D01*
X174777026Y-89294266D01*
X174371000Y-90274501D01*
X174371000Y-91335499D01*
X174777026Y-92315734D01*
X175527266Y-93065974D01*
X176507501Y-93472000D01*
X177568499Y-93472000D01*
X178548734Y-93065974D01*
X178868001Y-92746707D01*
X178868000Y-116803292D01*
X178548734Y-116484026D01*
X177568499Y-116078000D01*
X176507501Y-116078000D01*
X175527266Y-116484026D01*
X174777026Y-117234266D01*
X174371000Y-118214501D01*
X174371000Y-119275499D01*
X174777026Y-120255734D01*
X175527266Y-121005974D01*
X176507501Y-121412000D01*
X177568499Y-121412000D01*
X178548734Y-121005974D01*
X178868000Y-120686708D01*
X178868000Y-120990909D01*
X176585402Y-123273508D01*
X176526120Y-123313119D01*
X176384544Y-123525002D01*
X176369196Y-123547972D01*
X176314091Y-123825000D01*
X176328001Y-123894929D01*
X176328000Y-125655000D01*
X126909708Y-125655000D01*
X127228974Y-125335734D01*
X127635000Y-124355499D01*
X127635000Y-123525003D01*
X137439400Y-123525003D01*
X137439400Y-124124998D01*
X137526350Y-124562125D01*
X137857570Y-125057830D01*
X138353276Y-125389050D01*
X138938000Y-125505359D01*
X139522725Y-125389050D01*
X140018430Y-125057830D01*
X140208000Y-124774119D01*
X140397570Y-125057830D01*
X140893276Y-125389050D01*
X141478000Y-125505359D01*
X142062725Y-125389050D01*
X142558430Y-125057830D01*
X142748000Y-124774119D01*
X142937570Y-125057830D01*
X143433276Y-125389050D01*
X144018000Y-125505359D01*
X144602725Y-125389050D01*
X145098430Y-125057830D01*
X145288000Y-124774119D01*
X145477570Y-125057830D01*
X145973276Y-125389050D01*
X146558000Y-125505359D01*
X147142725Y-125389050D01*
X147638430Y-125057830D01*
X147828000Y-124774119D01*
X148017570Y-125057830D01*
X148513276Y-125389050D01*
X149098000Y-125505359D01*
X149682725Y-125389050D01*
X150178430Y-125057830D01*
X150371909Y-124768267D01*
X150735964Y-125175732D01*
X151263209Y-125429709D01*
X151278974Y-125432358D01*
X151511000Y-125311217D01*
X151511000Y-123952000D01*
X151765000Y-123952000D01*
X151765000Y-125311217D01*
X151997026Y-125432358D01*
X152012791Y-125429709D01*
X152540036Y-125175732D01*
X152908000Y-124763892D01*
X153275964Y-125175732D01*
X153803209Y-125429709D01*
X153818974Y-125432358D01*
X154051000Y-125311217D01*
X154051000Y-123952000D01*
X151765000Y-123952000D01*
X151511000Y-123952000D01*
X151491000Y-123952000D01*
X151491000Y-123698000D01*
X151511000Y-123698000D01*
X151511000Y-122338783D01*
X151765000Y-122338783D01*
X151765000Y-123698000D01*
X154051000Y-123698000D01*
X154051000Y-122338783D01*
X154305000Y-122338783D01*
X154305000Y-123698000D01*
X154325000Y-123698000D01*
X154325000Y-123952000D01*
X154305000Y-123952000D01*
X154305000Y-125311217D01*
X154537026Y-125432358D01*
X154552791Y-125429709D01*
X155080036Y-125175732D01*
X155444090Y-124768268D01*
X155637570Y-125057830D01*
X156133276Y-125389050D01*
X156718000Y-125505359D01*
X157302725Y-125389050D01*
X157798430Y-125057830D01*
X158129650Y-124562124D01*
X158216600Y-124124997D01*
X158216600Y-123525003D01*
X160299400Y-123525003D01*
X160299400Y-124124998D01*
X160386350Y-124562125D01*
X160717570Y-125057830D01*
X161213276Y-125389050D01*
X161798000Y-125505359D01*
X162382725Y-125389050D01*
X162878430Y-125057830D01*
X163068000Y-124774119D01*
X163257570Y-125057830D01*
X163753276Y-125389050D01*
X164338000Y-125505359D01*
X164922725Y-125389050D01*
X165418430Y-125057830D01*
X165608000Y-124774119D01*
X165797570Y-125057830D01*
X166293276Y-125389050D01*
X166878000Y-125505359D01*
X167462725Y-125389050D01*
X167958430Y-125057830D01*
X168148000Y-124774119D01*
X168337570Y-125057830D01*
X168833276Y-125389050D01*
X169418000Y-125505359D01*
X170002725Y-125389050D01*
X170498430Y-125057830D01*
X170688000Y-124774119D01*
X170877570Y-125057830D01*
X171373276Y-125389050D01*
X171958000Y-125505359D01*
X172542725Y-125389050D01*
X173038430Y-125057830D01*
X173228000Y-124774119D01*
X173417570Y-125057830D01*
X173913276Y-125389050D01*
X174498000Y-125505359D01*
X175082725Y-125389050D01*
X175578430Y-125057830D01*
X175909650Y-124562124D01*
X175996600Y-124124997D01*
X175996600Y-123525002D01*
X175909650Y-123087875D01*
X175578430Y-122592170D01*
X175082724Y-122260950D01*
X174498000Y-122144641D01*
X173913275Y-122260950D01*
X173417570Y-122592170D01*
X173228000Y-122875881D01*
X173038430Y-122592170D01*
X172542724Y-122260950D01*
X171958000Y-122144641D01*
X171373275Y-122260950D01*
X170877570Y-122592170D01*
X170688000Y-122875881D01*
X170498430Y-122592170D01*
X170002724Y-122260950D01*
X169418000Y-122144641D01*
X168833275Y-122260950D01*
X168337570Y-122592170D01*
X168148000Y-122875881D01*
X167958430Y-122592170D01*
X167462724Y-122260950D01*
X166878000Y-122144641D01*
X166293275Y-122260950D01*
X165797570Y-122592170D01*
X165608000Y-122875881D01*
X165418430Y-122592170D01*
X164922724Y-122260950D01*
X164338000Y-122144641D01*
X163753275Y-122260950D01*
X163257570Y-122592170D01*
X163068000Y-122875881D01*
X162878430Y-122592170D01*
X162382724Y-122260950D01*
X161798000Y-122144641D01*
X161213275Y-122260950D01*
X160717570Y-122592170D01*
X160386350Y-123087876D01*
X160299400Y-123525003D01*
X158216600Y-123525003D01*
X158216600Y-123525002D01*
X158129650Y-123087875D01*
X157798430Y-122592170D01*
X157302724Y-122260950D01*
X156718000Y-122144641D01*
X156133275Y-122260950D01*
X155637570Y-122592170D01*
X155444091Y-122881733D01*
X155080036Y-122474268D01*
X154552791Y-122220291D01*
X154537026Y-122217642D01*
X154305000Y-122338783D01*
X154051000Y-122338783D01*
X153818974Y-122217642D01*
X153803209Y-122220291D01*
X153275964Y-122474268D01*
X152908000Y-122886108D01*
X152540036Y-122474268D01*
X152012791Y-122220291D01*
X151997026Y-122217642D01*
X151765000Y-122338783D01*
X151511000Y-122338783D01*
X151278974Y-122217642D01*
X151263209Y-122220291D01*
X150735964Y-122474268D01*
X150371910Y-122881732D01*
X150178430Y-122592170D01*
X149682724Y-122260950D01*
X149098000Y-122144641D01*
X148513275Y-122260950D01*
X148017570Y-122592170D01*
X147828000Y-122875881D01*
X147638430Y-122592170D01*
X147142724Y-122260950D01*
X146558000Y-122144641D01*
X145973275Y-122260950D01*
X145477570Y-122592170D01*
X145288000Y-122875881D01*
X145098430Y-122592170D01*
X144602724Y-122260950D01*
X144018000Y-122144641D01*
X143433275Y-122260950D01*
X142937570Y-122592170D01*
X142748000Y-122875881D01*
X142558430Y-122592170D01*
X142062724Y-122260950D01*
X141478000Y-122144641D01*
X140893275Y-122260950D01*
X140397570Y-122592170D01*
X140208000Y-122875881D01*
X140018430Y-122592170D01*
X139522724Y-122260950D01*
X138938000Y-122144641D01*
X138353275Y-122260950D01*
X137857570Y-122592170D01*
X137526350Y-123087876D01*
X137439400Y-123525003D01*
X127635000Y-123525003D01*
X127635000Y-123294501D01*
X127228974Y-122314266D01*
X126478734Y-121564026D01*
X125498499Y-121158000D01*
X124437501Y-121158000D01*
X123457266Y-121564026D01*
X122707026Y-122314266D01*
X122301000Y-123294501D01*
X122301000Y-124355499D01*
X122707026Y-125335734D01*
X123026292Y-125655000D01*
X113582667Y-125655000D01*
X113084301Y-125592042D01*
X112659111Y-125423697D01*
X112289141Y-125154899D01*
X111997645Y-124802541D01*
X111802933Y-124388756D01*
X111710907Y-123906339D01*
X111708000Y-123813836D01*
X111708000Y-114672745D01*
X133664861Y-114672745D01*
X133738995Y-114918864D01*
X134276223Y-115111965D01*
X134846454Y-115084778D01*
X135247005Y-114918864D01*
X135321139Y-114672745D01*
X148904861Y-114672745D01*
X148978995Y-114918864D01*
X149516223Y-115111965D01*
X150086454Y-115084778D01*
X150487005Y-114918864D01*
X150561139Y-114672745D01*
X149733000Y-113844605D01*
X148904861Y-114672745D01*
X135321139Y-114672745D01*
X134493000Y-113844605D01*
X133664861Y-114672745D01*
X111708000Y-114672745D01*
X111708000Y-113448223D01*
X133046035Y-113448223D01*
X133073222Y-114018454D01*
X133239136Y-114419005D01*
X133485255Y-114493139D01*
X134313395Y-113665000D01*
X134672605Y-113665000D01*
X135500745Y-114493139D01*
X135746864Y-114419005D01*
X135939965Y-113881777D01*
X135912778Y-113311546D01*
X135746864Y-112910995D01*
X135500745Y-112836861D01*
X134672605Y-113665000D01*
X134313395Y-113665000D01*
X133485255Y-112836861D01*
X133239136Y-112910995D01*
X133046035Y-113448223D01*
X111708000Y-113448223D01*
X111708000Y-110879561D01*
X133058000Y-110879561D01*
X133058000Y-111450439D01*
X133276466Y-111977862D01*
X133680138Y-112381534D01*
X133745299Y-112408525D01*
X133738995Y-112411136D01*
X133664861Y-112657255D01*
X134493000Y-113485395D01*
X135321139Y-112657255D01*
X135247005Y-112411136D01*
X135240254Y-112408710D01*
X135305862Y-112381534D01*
X135487396Y-112200000D01*
X138114290Y-112200000D01*
X138388000Y-112473710D01*
X138388000Y-112670494D01*
X138598853Y-113179540D01*
X138988460Y-113569147D01*
X139497506Y-113780000D01*
X140048494Y-113780000D01*
X140557540Y-113569147D01*
X140947147Y-113179540D01*
X141158000Y-112670494D01*
X141158000Y-112473711D01*
X141502776Y-112128935D01*
X141589193Y-112071193D01*
X141817948Y-111728837D01*
X141878000Y-111426935D01*
X141898276Y-111325000D01*
X141878000Y-111223066D01*
X141878000Y-108748944D01*
X142113000Y-108397241D01*
X142348000Y-108748943D01*
X142348001Y-111023061D01*
X142327724Y-111125000D01*
X142408052Y-111528836D01*
X142408053Y-111528837D01*
X142636808Y-111871193D01*
X142723225Y-111928935D01*
X143268000Y-112473710D01*
X143268000Y-112670494D01*
X143478853Y-113179540D01*
X143868460Y-113569147D01*
X144377506Y-113780000D01*
X144928494Y-113780000D01*
X145437540Y-113569147D01*
X145558464Y-113448223D01*
X148286035Y-113448223D01*
X148313222Y-114018454D01*
X148479136Y-114419005D01*
X148725255Y-114493139D01*
X149553395Y-113665000D01*
X149912605Y-113665000D01*
X150740745Y-114493139D01*
X150986864Y-114419005D01*
X151179965Y-113881777D01*
X151152778Y-113311546D01*
X150986864Y-112910995D01*
X150740745Y-112836861D01*
X149912605Y-113665000D01*
X149553395Y-113665000D01*
X148725255Y-112836861D01*
X148479136Y-112910995D01*
X148286035Y-113448223D01*
X145558464Y-113448223D01*
X145827147Y-113179540D01*
X146038000Y-112670494D01*
X146038000Y-112473711D01*
X146311711Y-112200000D01*
X148738604Y-112200000D01*
X148920138Y-112381534D01*
X148985299Y-112408525D01*
X148978995Y-112411136D01*
X148904861Y-112657255D01*
X149733000Y-113485395D01*
X150561139Y-112657255D01*
X150487005Y-112411136D01*
X150480254Y-112408710D01*
X150545862Y-112381534D01*
X150949534Y-111977862D01*
X151168000Y-111450439D01*
X151168000Y-110879561D01*
X150949534Y-110352138D01*
X150545862Y-109948466D01*
X150018439Y-109730000D01*
X149447561Y-109730000D01*
X148920138Y-109948466D01*
X148738604Y-110130000D01*
X145984934Y-110130000D01*
X145883000Y-110109724D01*
X145781065Y-110130000D01*
X145479163Y-110190052D01*
X145136807Y-110418807D01*
X145079065Y-110505224D01*
X144653000Y-110931289D01*
X144418000Y-110696290D01*
X144418000Y-108748944D01*
X144653000Y-108397241D01*
X144888424Y-108749577D01*
X145363092Y-109066740D01*
X145923000Y-109178113D01*
X146482909Y-109066740D01*
X146957577Y-108749577D01*
X147193000Y-108397241D01*
X147428424Y-108749577D01*
X147903092Y-109066740D01*
X148463000Y-109178113D01*
X149022909Y-109066740D01*
X149497577Y-108749577D01*
X149733000Y-108397241D01*
X149968424Y-108749577D01*
X150443092Y-109066740D01*
X151003000Y-109178113D01*
X151562909Y-109066740D01*
X152037577Y-108749577D01*
X152273000Y-108397241D01*
X152508424Y-108749577D01*
X152983092Y-109066740D01*
X153543000Y-109178113D01*
X154102909Y-109066740D01*
X154577577Y-108749577D01*
X154894740Y-108274909D01*
X154978000Y-107856332D01*
X154978000Y-106773667D01*
X154894740Y-106355091D01*
X154577576Y-105880423D01*
X154102908Y-105563260D01*
X153543000Y-105451887D01*
X152983091Y-105563260D01*
X152508423Y-105880424D01*
X152273000Y-106232759D01*
X152037576Y-105880423D01*
X151562908Y-105563260D01*
X151003000Y-105451887D01*
X150443091Y-105563260D01*
X149968423Y-105880424D01*
X149733000Y-106232759D01*
X149497576Y-105880423D01*
X149022908Y-105563260D01*
X148463000Y-105451887D01*
X147903091Y-105563260D01*
X147428423Y-105880424D01*
X147193000Y-106232759D01*
X146957576Y-105880423D01*
X146482908Y-105563260D01*
X145923000Y-105451887D01*
X145363091Y-105563260D01*
X144888423Y-105880424D01*
X144653000Y-106232759D01*
X144417576Y-105880423D01*
X143942908Y-105563260D01*
X143383000Y-105451887D01*
X142823091Y-105563260D01*
X142348423Y-105880424D01*
X142113000Y-106232759D01*
X141877576Y-105880423D01*
X141402908Y-105563260D01*
X140843000Y-105451887D01*
X140283091Y-105563260D01*
X139808423Y-105880424D01*
X139570501Y-106236499D01*
X139227896Y-105810500D01*
X138734819Y-105540633D01*
X138652039Y-105523096D01*
X138430000Y-105645085D01*
X138430000Y-107188000D01*
X138450000Y-107188000D01*
X138450000Y-107442000D01*
X138430000Y-107442000D01*
X138430000Y-108984915D01*
X138652039Y-109106904D01*
X138734819Y-109089367D01*
X139227896Y-108819500D01*
X139570501Y-108393501D01*
X139808000Y-108748943D01*
X139808001Y-110896288D01*
X139773000Y-110931289D01*
X139346937Y-110505227D01*
X139289193Y-110418807D01*
X138946837Y-110190052D01*
X138644935Y-110130000D01*
X138644934Y-110130000D01*
X138543000Y-110109724D01*
X138441066Y-110130000D01*
X135487396Y-110130000D01*
X135305862Y-109948466D01*
X134778439Y-109730000D01*
X134207561Y-109730000D01*
X133680138Y-109948466D01*
X133276466Y-110352138D01*
X133058000Y-110879561D01*
X111708000Y-110879561D01*
X111708000Y-101125087D01*
X115657724Y-101125087D01*
X115678000Y-101227022D01*
X115678001Y-104038061D01*
X115657724Y-104140000D01*
X115738052Y-104543836D01*
X115738053Y-104543837D01*
X115966808Y-104886193D01*
X116053225Y-104943935D01*
X116544063Y-105434773D01*
X116601807Y-105521193D01*
X116944163Y-105749948D01*
X117348000Y-105830276D01*
X117449934Y-105810000D01*
X117954290Y-105810000D01*
X119075560Y-106931271D01*
X119075560Y-108515000D01*
X119124843Y-108762765D01*
X119265191Y-108972809D01*
X119475235Y-109113157D01*
X119723000Y-109162440D01*
X121323000Y-109162440D01*
X121570765Y-109113157D01*
X121780809Y-108972809D01*
X121921157Y-108762765D01*
X121947785Y-108628893D01*
X122028424Y-108749577D01*
X122503092Y-109066740D01*
X123063000Y-109178113D01*
X123622909Y-109066740D01*
X124097577Y-108749577D01*
X124333000Y-108397241D01*
X124568424Y-108749577D01*
X125043092Y-109066740D01*
X125603000Y-109178113D01*
X126162909Y-109066740D01*
X126637577Y-108749577D01*
X126873000Y-108397241D01*
X127108424Y-108749577D01*
X127583092Y-109066740D01*
X128143000Y-109178113D01*
X128702909Y-109066740D01*
X129177577Y-108749577D01*
X129413000Y-108397241D01*
X129648424Y-108749577D01*
X130123092Y-109066740D01*
X130683000Y-109178113D01*
X131242909Y-109066740D01*
X131717577Y-108749577D01*
X131953000Y-108397241D01*
X132188424Y-108749577D01*
X132663092Y-109066740D01*
X133223000Y-109178113D01*
X133782909Y-109066740D01*
X134257577Y-108749577D01*
X134493000Y-108397241D01*
X134728424Y-108749577D01*
X135203092Y-109066740D01*
X135763000Y-109178113D01*
X136322909Y-109066740D01*
X136797577Y-108749577D01*
X137035499Y-108393501D01*
X137378104Y-108819500D01*
X137871181Y-109089367D01*
X137953961Y-109106904D01*
X138176000Y-108984915D01*
X138176000Y-107442000D01*
X138156000Y-107442000D01*
X138156000Y-107188000D01*
X138176000Y-107188000D01*
X138176000Y-105645085D01*
X137953961Y-105523096D01*
X137871181Y-105540633D01*
X137378104Y-105810500D01*
X137035499Y-106236499D01*
X136797576Y-105880423D01*
X136322908Y-105563260D01*
X135763000Y-105451887D01*
X135203091Y-105563260D01*
X134728423Y-105880424D01*
X134493000Y-106232759D01*
X134257576Y-105880423D01*
X133782908Y-105563260D01*
X133223000Y-105451887D01*
X132663091Y-105563260D01*
X132188423Y-105880424D01*
X131953000Y-106232759D01*
X131717576Y-105880423D01*
X131242908Y-105563260D01*
X130683000Y-105451887D01*
X130123091Y-105563260D01*
X129648423Y-105880424D01*
X129413000Y-106232759D01*
X129177576Y-105880423D01*
X128702908Y-105563260D01*
X128143000Y-105451887D01*
X127583091Y-105563260D01*
X127108423Y-105880424D01*
X126873000Y-106232759D01*
X126637576Y-105880423D01*
X126162908Y-105563260D01*
X125603000Y-105451887D01*
X125043091Y-105563260D01*
X124568423Y-105880424D01*
X124333000Y-106232759D01*
X124097576Y-105880423D01*
X123622908Y-105563260D01*
X123063000Y-105451887D01*
X122503091Y-105563260D01*
X122028423Y-105880424D01*
X121947785Y-106001107D01*
X121921157Y-105867235D01*
X121780809Y-105657191D01*
X121570765Y-105516843D01*
X121323000Y-105467560D01*
X120539271Y-105467560D01*
X119186937Y-104115227D01*
X119129193Y-104028807D01*
X118786837Y-103800052D01*
X118484935Y-103740000D01*
X118484934Y-103740000D01*
X118383000Y-103719724D01*
X118281066Y-103740000D01*
X117776710Y-103740000D01*
X117748000Y-103711290D01*
X117748000Y-101553797D01*
X119088000Y-100213797D01*
X119088000Y-100236333D01*
X119171260Y-100654909D01*
X119488424Y-101129577D01*
X119963092Y-101446740D01*
X120523000Y-101558113D01*
X121082909Y-101446740D01*
X121557577Y-101129577D01*
X121793000Y-100777241D01*
X122028424Y-101129577D01*
X122503092Y-101446740D01*
X123063000Y-101558113D01*
X123622909Y-101446740D01*
X124097577Y-101129577D01*
X124333000Y-100777241D01*
X124568424Y-101129577D01*
X125043092Y-101446740D01*
X125603000Y-101558113D01*
X126162909Y-101446740D01*
X126637577Y-101129577D01*
X126873000Y-100777241D01*
X127108424Y-101129577D01*
X127583092Y-101446740D01*
X128143000Y-101558113D01*
X128702909Y-101446740D01*
X129177577Y-101129577D01*
X129413000Y-100777241D01*
X129648424Y-101129577D01*
X130123092Y-101446740D01*
X130683000Y-101558113D01*
X131242909Y-101446740D01*
X131717577Y-101129577D01*
X131953000Y-100777241D01*
X132188424Y-101129577D01*
X132663092Y-101446740D01*
X133223000Y-101558113D01*
X133782909Y-101446740D01*
X134257577Y-101129577D01*
X134495499Y-100773501D01*
X134838104Y-101199500D01*
X135331181Y-101469367D01*
X135413961Y-101486904D01*
X135636000Y-101364915D01*
X135636000Y-99822000D01*
X135616000Y-99822000D01*
X135616000Y-99568000D01*
X135636000Y-99568000D01*
X135636000Y-98025085D01*
X135890000Y-98025085D01*
X135890000Y-99568000D01*
X135910000Y-99568000D01*
X135910000Y-99822000D01*
X135890000Y-99822000D01*
X135890000Y-101364915D01*
X136112039Y-101486904D01*
X136194819Y-101469367D01*
X136687896Y-101199500D01*
X137030501Y-100773501D01*
X137268424Y-101129577D01*
X137743092Y-101446740D01*
X138303000Y-101558113D01*
X138862909Y-101446740D01*
X139337577Y-101129577D01*
X139573000Y-100777241D01*
X139808424Y-101129577D01*
X140283092Y-101446740D01*
X140843000Y-101558113D01*
X141402909Y-101446740D01*
X141877577Y-101129577D01*
X142113000Y-100777241D01*
X142348424Y-101129577D01*
X142823092Y-101446740D01*
X143383000Y-101558113D01*
X143942909Y-101446740D01*
X144417577Y-101129577D01*
X144653000Y-100777241D01*
X144888424Y-101129577D01*
X145363092Y-101446740D01*
X145923000Y-101558113D01*
X146482909Y-101446740D01*
X146957577Y-101129577D01*
X147193000Y-100777241D01*
X147428424Y-101129577D01*
X147903092Y-101446740D01*
X148463000Y-101558113D01*
X149022909Y-101446740D01*
X149497577Y-101129577D01*
X149733000Y-100777241D01*
X149968424Y-101129577D01*
X150443092Y-101446740D01*
X151003000Y-101558113D01*
X151562909Y-101446740D01*
X152037577Y-101129577D01*
X152273000Y-100777241D01*
X152508424Y-101129577D01*
X152983092Y-101446740D01*
X153543000Y-101558113D01*
X154102909Y-101446740D01*
X154577577Y-101129577D01*
X154894740Y-100654909D01*
X154978000Y-100236332D01*
X154978000Y-99153667D01*
X154894740Y-98735091D01*
X154577576Y-98260423D01*
X154102908Y-97943260D01*
X153543000Y-97831887D01*
X152983091Y-97943260D01*
X152508423Y-98260424D01*
X152273000Y-98612759D01*
X152037576Y-98260423D01*
X151562908Y-97943260D01*
X151003000Y-97831887D01*
X150443091Y-97943260D01*
X149968423Y-98260424D01*
X149733000Y-98612759D01*
X149498000Y-98261058D01*
X149498000Y-94900750D01*
X162803000Y-94900750D01*
X162803000Y-95641309D01*
X162899673Y-95874698D01*
X163078301Y-96053327D01*
X163311690Y-96150000D01*
X164052250Y-96150000D01*
X164211000Y-95991250D01*
X164211000Y-94742000D01*
X164465000Y-94742000D01*
X164465000Y-95991250D01*
X164623750Y-96150000D01*
X165364310Y-96150000D01*
X165597699Y-96053327D01*
X165776327Y-95874698D01*
X165873000Y-95641309D01*
X165873000Y-94900750D01*
X165714250Y-94742000D01*
X164465000Y-94742000D01*
X164211000Y-94742000D01*
X162961750Y-94742000D01*
X162803000Y-94900750D01*
X149498000Y-94900750D01*
X149498000Y-90519561D01*
X150838000Y-90519561D01*
X150838000Y-91090439D01*
X151056466Y-91617862D01*
X151460138Y-92021534D01*
X151987561Y-92240000D01*
X152558439Y-92240000D01*
X153085862Y-92021534D01*
X153489534Y-91617862D01*
X153708000Y-91090439D01*
X153708000Y-90833710D01*
X153736710Y-90805000D01*
X158429887Y-90805000D01*
X158541260Y-91364909D01*
X158858423Y-91839577D01*
X159333091Y-92156740D01*
X159751667Y-92240000D01*
X159864289Y-92240000D01*
X160359065Y-92734776D01*
X160416807Y-92821193D01*
X160759163Y-93049948D01*
X161162999Y-93130276D01*
X161264934Y-93110000D01*
X163202183Y-93110000D01*
X163213044Y-93120861D01*
X163078301Y-93176673D01*
X162899673Y-93355302D01*
X162803000Y-93588691D01*
X162803000Y-94329250D01*
X162961750Y-94488000D01*
X164211000Y-94488000D01*
X164211000Y-94468000D01*
X164465000Y-94468000D01*
X164465000Y-94488000D01*
X165714250Y-94488000D01*
X165873000Y-94329250D01*
X165873000Y-93588691D01*
X165776327Y-93355302D01*
X165597699Y-93176673D01*
X165462956Y-93120861D01*
X165639310Y-92944507D01*
X165873000Y-92380330D01*
X165873000Y-91769670D01*
X165639310Y-91205493D01*
X165207507Y-90773690D01*
X164643330Y-90540000D01*
X164032670Y-90540000D01*
X163468493Y-90773690D01*
X163202183Y-91040000D01*
X161591711Y-91040000D01*
X161355965Y-90804254D01*
X161244740Y-90245091D01*
X160927577Y-89770423D01*
X160452909Y-89453260D01*
X160034333Y-89370000D01*
X159751667Y-89370000D01*
X159333091Y-89453260D01*
X158858423Y-89770423D01*
X158541260Y-90245091D01*
X158429887Y-90805000D01*
X153736710Y-90805000D01*
X155990960Y-88550750D01*
X162803000Y-88550750D01*
X162803000Y-89291309D01*
X162899673Y-89524698D01*
X163078301Y-89703327D01*
X163311690Y-89800000D01*
X164052250Y-89800000D01*
X164211000Y-89641250D01*
X164211000Y-88392000D01*
X164465000Y-88392000D01*
X164465000Y-89641250D01*
X164623750Y-89800000D01*
X165364310Y-89800000D01*
X165597699Y-89703327D01*
X165776327Y-89524698D01*
X165873000Y-89291309D01*
X165873000Y-88550750D01*
X165714250Y-88392000D01*
X164465000Y-88392000D01*
X164211000Y-88392000D01*
X162961750Y-88392000D01*
X162803000Y-88550750D01*
X155990960Y-88550750D01*
X157377776Y-87163935D01*
X157464193Y-87106193D01*
X157692948Y-86763837D01*
X157747242Y-86490881D01*
X157773276Y-86360001D01*
X157753000Y-86258066D01*
X157753000Y-85725000D01*
X158429887Y-85725000D01*
X158541260Y-86284909D01*
X158858423Y-86759577D01*
X159333091Y-87076740D01*
X159751667Y-87160000D01*
X160034333Y-87160000D01*
X160452909Y-87076740D01*
X160926944Y-86760000D01*
X163202183Y-86760000D01*
X163213044Y-86770861D01*
X163078301Y-86826673D01*
X162899673Y-87005302D01*
X162803000Y-87238691D01*
X162803000Y-87979250D01*
X162961750Y-88138000D01*
X164211000Y-88138000D01*
X164211000Y-88118000D01*
X164465000Y-88118000D01*
X164465000Y-88138000D01*
X165714250Y-88138000D01*
X165873000Y-87979250D01*
X165873000Y-87238691D01*
X165776327Y-87005302D01*
X165597699Y-86826673D01*
X165462956Y-86770861D01*
X165639310Y-86594507D01*
X165873000Y-86030330D01*
X165873000Y-85419670D01*
X165639310Y-84855493D01*
X165207507Y-84423690D01*
X164643330Y-84190000D01*
X164032670Y-84190000D01*
X163468493Y-84423690D01*
X163202183Y-84690000D01*
X160926944Y-84690000D01*
X160452909Y-84373260D01*
X160034333Y-84290000D01*
X159751667Y-84290000D01*
X159333091Y-84373260D01*
X158858423Y-84690423D01*
X158541260Y-85165091D01*
X158429887Y-85725000D01*
X157753000Y-85725000D01*
X157753000Y-82200750D01*
X162803000Y-82200750D01*
X162803000Y-82941309D01*
X162899673Y-83174698D01*
X163078301Y-83353327D01*
X163311690Y-83450000D01*
X164052250Y-83450000D01*
X164211000Y-83291250D01*
X164211000Y-82042000D01*
X164465000Y-82042000D01*
X164465000Y-83291250D01*
X164623750Y-83450000D01*
X165364310Y-83450000D01*
X165597699Y-83353327D01*
X165776327Y-83174698D01*
X165873000Y-82941309D01*
X165873000Y-82200750D01*
X165714250Y-82042000D01*
X164465000Y-82042000D01*
X164211000Y-82042000D01*
X162961750Y-82042000D01*
X162803000Y-82200750D01*
X157753000Y-82200750D01*
X157753000Y-80645000D01*
X158429887Y-80645000D01*
X158541260Y-81204909D01*
X158858423Y-81679577D01*
X159333091Y-81996740D01*
X159751667Y-82080000D01*
X160034333Y-82080000D01*
X160452909Y-81996740D01*
X160927577Y-81679577D01*
X161244740Y-81204909D01*
X161355965Y-80645746D01*
X161591711Y-80410000D01*
X163202183Y-80410000D01*
X163213044Y-80420861D01*
X163078301Y-80476673D01*
X162899673Y-80655302D01*
X162803000Y-80888691D01*
X162803000Y-81629250D01*
X162961750Y-81788000D01*
X164211000Y-81788000D01*
X164211000Y-81768000D01*
X164465000Y-81768000D01*
X164465000Y-81788000D01*
X165714250Y-81788000D01*
X165873000Y-81629250D01*
X165873000Y-80888691D01*
X165776327Y-80655302D01*
X165597699Y-80476673D01*
X165462956Y-80420861D01*
X165639310Y-80244507D01*
X165873000Y-79680330D01*
X165873000Y-79069670D01*
X165639310Y-78505493D01*
X165207507Y-78073690D01*
X164643330Y-77840000D01*
X164032670Y-77840000D01*
X163468493Y-78073690D01*
X163202183Y-78340000D01*
X161264934Y-78340000D01*
X161162999Y-78319724D01*
X161061065Y-78340000D01*
X160759163Y-78400052D01*
X160416807Y-78628807D01*
X160359065Y-78715224D01*
X159864289Y-79210000D01*
X159751667Y-79210000D01*
X159333091Y-79293260D01*
X158858423Y-79610423D01*
X158541260Y-80085091D01*
X158429887Y-80645000D01*
X157753000Y-80645000D01*
X157753000Y-76828185D01*
X157798430Y-76797830D01*
X157988000Y-76514119D01*
X158177570Y-76797830D01*
X158673276Y-77129050D01*
X159258000Y-77245359D01*
X159842725Y-77129050D01*
X160338430Y-76797830D01*
X160528000Y-76514119D01*
X160717570Y-76797830D01*
X161213276Y-77129050D01*
X161798000Y-77245359D01*
X162382725Y-77129050D01*
X162878430Y-76797830D01*
X163068000Y-76514119D01*
X163257570Y-76797830D01*
X163753276Y-77129050D01*
X164338000Y-77245359D01*
X164922725Y-77129050D01*
X165418430Y-76797830D01*
X165608000Y-76514119D01*
X165797570Y-76797830D01*
X166293276Y-77129050D01*
X166878000Y-77245359D01*
X167462725Y-77129050D01*
X167958430Y-76797830D01*
X168148000Y-76514119D01*
X168337570Y-76797830D01*
X168833276Y-77129050D01*
X169418000Y-77245359D01*
X170002725Y-77129050D01*
X170498430Y-76797830D01*
X170688000Y-76514119D01*
X170877570Y-76797830D01*
X171373276Y-77129050D01*
X171958000Y-77245359D01*
X172542725Y-77129050D01*
X173038430Y-76797830D01*
X173228000Y-76514119D01*
X173417570Y-76797830D01*
X173913276Y-77129050D01*
X174498000Y-77245359D01*
X175082725Y-77129050D01*
X175578430Y-76797830D01*
X175909650Y-76302124D01*
X175996600Y-75864997D01*
X175996600Y-75265002D01*
X175909650Y-74827875D01*
X175578430Y-74332170D01*
X175082724Y-74000950D01*
X174498000Y-73884641D01*
X173913275Y-74000950D01*
X173417570Y-74332170D01*
X173228000Y-74615881D01*
X173038430Y-74332170D01*
X172542724Y-74000950D01*
X171958000Y-73884641D01*
X171373275Y-74000950D01*
X170877570Y-74332170D01*
X170688000Y-74615881D01*
X170498430Y-74332170D01*
X170002724Y-74000950D01*
X169418000Y-73884641D01*
X168833275Y-74000950D01*
X168337570Y-74332170D01*
X168148000Y-74615881D01*
X167958430Y-74332170D01*
X167462724Y-74000950D01*
X166878000Y-73884641D01*
X166293275Y-74000950D01*
X165797570Y-74332170D01*
X165608000Y-74615881D01*
X165418430Y-74332170D01*
X164922724Y-74000950D01*
X164338000Y-73884641D01*
X163753275Y-74000950D01*
X163257570Y-74332170D01*
X163068000Y-74615881D01*
X162878430Y-74332170D01*
X162382724Y-74000950D01*
X161798000Y-73884641D01*
X161213275Y-74000950D01*
X160717570Y-74332170D01*
X160528000Y-74615881D01*
X160338430Y-74332170D01*
X159842724Y-74000950D01*
X159258000Y-73884641D01*
X158673275Y-74000950D01*
X158177570Y-74332170D01*
X157988000Y-74615881D01*
X157798430Y-74332170D01*
X157302724Y-74000950D01*
X156718000Y-73884641D01*
X156133275Y-74000950D01*
X155637570Y-74332170D01*
X155306350Y-74827876D01*
X155219400Y-75265003D01*
X155219400Y-75864998D01*
X155306350Y-76302125D01*
X155637570Y-76797830D01*
X155683000Y-76828185D01*
X155683001Y-85931288D01*
X152244290Y-89370000D01*
X151987561Y-89370000D01*
X151460138Y-89588466D01*
X151056466Y-89992138D01*
X150838000Y-90519561D01*
X149498000Y-90519561D01*
X149498000Y-84413710D01*
X150838000Y-85753711D01*
X150838000Y-86010439D01*
X151056466Y-86537862D01*
X151460138Y-86941534D01*
X151987561Y-87160000D01*
X152558439Y-87160000D01*
X153085862Y-86941534D01*
X153489534Y-86537862D01*
X153708000Y-86010439D01*
X153708000Y-85439561D01*
X153489534Y-84912138D01*
X153085862Y-84508466D01*
X152558439Y-84290000D01*
X152301711Y-84290000D01*
X151149000Y-83137290D01*
X151149000Y-81550396D01*
X151460138Y-81861534D01*
X151987561Y-82080000D01*
X152558439Y-82080000D01*
X153085862Y-81861534D01*
X153489534Y-81457862D01*
X153708000Y-80930439D01*
X153708000Y-80359561D01*
X153696020Y-80330640D01*
X153709276Y-80264001D01*
X153689000Y-80162068D01*
X153689000Y-76828185D01*
X153734430Y-76797830D01*
X154065650Y-76302124D01*
X154152600Y-75864997D01*
X154152600Y-75265002D01*
X154065650Y-74827875D01*
X153734430Y-74332170D01*
X153238724Y-74000950D01*
X152654000Y-73884641D01*
X152069275Y-74000950D01*
X151573570Y-74332170D01*
X151384000Y-74615881D01*
X151194430Y-74332170D01*
X150698724Y-74000950D01*
X150114000Y-73884641D01*
X149529275Y-74000950D01*
X149033570Y-74332170D01*
X148844000Y-74615881D01*
X148654430Y-74332170D01*
X148158724Y-74000950D01*
X147574000Y-73884641D01*
X146989275Y-74000950D01*
X146493570Y-74332170D01*
X146304000Y-74615881D01*
X146114430Y-74332170D01*
X145618724Y-74000950D01*
X145034000Y-73884641D01*
X144449275Y-74000950D01*
X143953570Y-74332170D01*
X143764000Y-74615881D01*
X143574430Y-74332170D01*
X143078724Y-74000950D01*
X142494000Y-73884641D01*
X141909275Y-74000950D01*
X141413570Y-74332170D01*
X141224000Y-74615881D01*
X141034430Y-74332170D01*
X140538724Y-74000950D01*
X139954000Y-73884641D01*
X139369275Y-74000950D01*
X138873570Y-74332170D01*
X138680091Y-74621733D01*
X138316036Y-74214268D01*
X137788791Y-73960291D01*
X137773026Y-73957642D01*
X137541000Y-74078783D01*
X137541000Y-75438000D01*
X137561000Y-75438000D01*
X137561000Y-75692000D01*
X137541000Y-75692000D01*
X137541000Y-77051217D01*
X137773026Y-77172358D01*
X137788791Y-77169709D01*
X138316036Y-76915732D01*
X138680090Y-76508268D01*
X138873570Y-76797830D01*
X138919000Y-76828186D01*
X138919001Y-78384061D01*
X138898724Y-78486000D01*
X138979052Y-78889836D01*
X139149044Y-79144246D01*
X139207808Y-79232193D01*
X139294225Y-79289935D01*
X140650035Y-80645746D01*
X140761260Y-81204909D01*
X141078423Y-81679577D01*
X141553091Y-81996740D01*
X141971667Y-82080000D01*
X142084289Y-82080000D01*
X142478001Y-82473712D01*
X142478001Y-84340640D01*
X142462041Y-84333086D01*
X142240000Y-84454371D01*
X142240000Y-85598000D01*
X142260000Y-85598000D01*
X142260000Y-85852000D01*
X142240000Y-85852000D01*
X142240000Y-86995629D01*
X142462041Y-87116914D01*
X142478001Y-87109360D01*
X142478001Y-89414490D01*
X142254333Y-89370000D01*
X141971667Y-89370000D01*
X141553091Y-89453260D01*
X141078423Y-89770423D01*
X140761260Y-90245091D01*
X140649887Y-90805000D01*
X140761260Y-91364909D01*
X141078423Y-91839577D01*
X141553091Y-92156740D01*
X141971667Y-92240000D01*
X142254333Y-92240000D01*
X142478002Y-92195510D01*
X142478002Y-97186477D01*
X142408052Y-97291164D01*
X142327724Y-97695000D01*
X142348000Y-97796935D01*
X142348000Y-98261057D01*
X142113000Y-98612759D01*
X141877576Y-98260423D01*
X141402908Y-97943260D01*
X140843000Y-97831887D01*
X140283091Y-97943260D01*
X139808423Y-98260424D01*
X139573000Y-98612759D01*
X139337576Y-98260423D01*
X138862908Y-97943260D01*
X138303000Y-97831887D01*
X137743091Y-97943260D01*
X137268423Y-98260424D01*
X137030501Y-98616499D01*
X136687896Y-98190500D01*
X136194819Y-97920633D01*
X136112039Y-97903096D01*
X135890000Y-98025085D01*
X135636000Y-98025085D01*
X135413961Y-97903096D01*
X135331181Y-97920633D01*
X134838104Y-98190500D01*
X134495499Y-98616499D01*
X134257576Y-98260423D01*
X133782908Y-97943260D01*
X133223000Y-97831887D01*
X132663091Y-97943260D01*
X132188423Y-98260424D01*
X131953000Y-98612759D01*
X131717576Y-98260423D01*
X131242908Y-97943260D01*
X130683000Y-97831887D01*
X130123091Y-97943260D01*
X129648423Y-98260424D01*
X129413000Y-98612759D01*
X129177576Y-98260423D01*
X128702908Y-97943260D01*
X128143000Y-97831887D01*
X127583091Y-97943260D01*
X127108423Y-98260424D01*
X126873000Y-98612759D01*
X126637576Y-98260423D01*
X126162908Y-97943260D01*
X125603000Y-97831887D01*
X125043091Y-97943260D01*
X124568423Y-98260424D01*
X124333000Y-98612759D01*
X124097576Y-98260423D01*
X123622908Y-97943260D01*
X123063000Y-97831887D01*
X122503091Y-97943260D01*
X122028423Y-98260424D01*
X121793000Y-98612759D01*
X121557576Y-98260423D01*
X121248136Y-98053662D01*
X121266797Y-98035001D01*
X121361065Y-98035001D01*
X121462999Y-98055277D01*
X121564933Y-98035001D01*
X121564934Y-98035001D01*
X121866836Y-97974949D01*
X122209192Y-97746194D01*
X122266936Y-97659774D01*
X122891710Y-97035000D01*
X123388222Y-97035000D01*
X123989153Y-96786086D01*
X124449086Y-96326153D01*
X124698000Y-95725222D01*
X124698000Y-95228710D01*
X128086711Y-91840000D01*
X133498604Y-91840000D01*
X133680138Y-92021534D01*
X134207561Y-92240000D01*
X134778439Y-92240000D01*
X135305862Y-92021534D01*
X135709534Y-91617862D01*
X135928000Y-91090439D01*
X135928000Y-90519561D01*
X135709534Y-89992138D01*
X135305862Y-89588466D01*
X134778439Y-89370000D01*
X134207561Y-89370000D01*
X133680138Y-89588466D01*
X133498604Y-89770000D01*
X129155756Y-89770000D01*
X129647507Y-89566310D01*
X130079310Y-89134507D01*
X130313000Y-88570330D01*
X130313000Y-87959670D01*
X130079310Y-87395493D01*
X129910092Y-87226275D01*
X129925765Y-87223157D01*
X130135809Y-87082809D01*
X130276157Y-86872765D01*
X130298587Y-86760000D01*
X133498604Y-86760000D01*
X133680138Y-86941534D01*
X134207561Y-87160000D01*
X134778439Y-87160000D01*
X135305862Y-86941534D01*
X135709534Y-86537862D01*
X135901655Y-86074039D01*
X140721096Y-86074039D01*
X140881959Y-86462423D01*
X141257866Y-86877389D01*
X141763959Y-87116914D01*
X141986000Y-86995629D01*
X141986000Y-85852000D01*
X140843085Y-85852000D01*
X140721096Y-86074039D01*
X135901655Y-86074039D01*
X135928000Y-86010439D01*
X135928000Y-85439561D01*
X135901656Y-85375961D01*
X140721096Y-85375961D01*
X140843085Y-85598000D01*
X141986000Y-85598000D01*
X141986000Y-84454371D01*
X141763959Y-84333086D01*
X141257866Y-84572611D01*
X140881959Y-84987577D01*
X140721096Y-85375961D01*
X135901656Y-85375961D01*
X135709534Y-84912138D01*
X135305862Y-84508466D01*
X134778439Y-84290000D01*
X134207561Y-84290000D01*
X133680138Y-84508466D01*
X133498604Y-84690000D01*
X130298587Y-84690000D01*
X130276157Y-84577235D01*
X130135809Y-84367191D01*
X129925765Y-84226843D01*
X129678000Y-84177560D01*
X127878000Y-84177560D01*
X127630235Y-84226843D01*
X127420191Y-84367191D01*
X127279843Y-84577235D01*
X127230560Y-84825000D01*
X127230560Y-86625000D01*
X127279843Y-86872765D01*
X127420191Y-87082809D01*
X127630235Y-87223157D01*
X127645908Y-87226275D01*
X127476690Y-87395493D01*
X127243000Y-87959670D01*
X127243000Y-88570330D01*
X127476690Y-89134507D01*
X127908493Y-89566310D01*
X128400244Y-89770000D01*
X127759932Y-89770000D01*
X127657999Y-89749724D01*
X127556066Y-89770000D01*
X127556065Y-89770000D01*
X127254163Y-89830052D01*
X126911807Y-90058807D01*
X126854065Y-90145224D01*
X124098000Y-92901290D01*
X124098000Y-90177239D01*
X124449086Y-89826153D01*
X124698000Y-89225222D01*
X124698000Y-88574778D01*
X124449086Y-87973847D01*
X123989153Y-87513914D01*
X123388222Y-87265000D01*
X122737778Y-87265000D01*
X122136847Y-87513914D01*
X121676914Y-87973847D01*
X121428000Y-88574778D01*
X121428000Y-89225222D01*
X121676914Y-89826153D01*
X122028001Y-90177240D01*
X122028000Y-94122761D01*
X121676914Y-94473847D01*
X121428000Y-95074778D01*
X121428000Y-95571290D01*
X121034289Y-95965001D01*
X120940020Y-95965001D01*
X120838086Y-95944725D01*
X120736151Y-95965001D01*
X120434249Y-96025053D01*
X120091893Y-96253808D01*
X120034151Y-96340225D01*
X116053227Y-100321150D01*
X115966807Y-100378894D01*
X115738053Y-100721250D01*
X115738052Y-100721251D01*
X115657724Y-101125087D01*
X111708000Y-101125087D01*
X111708000Y-96552532D01*
X117590073Y-96552532D01*
X117688736Y-96819387D01*
X118298461Y-97045908D01*
X118948460Y-97021856D01*
X119437264Y-96819387D01*
X119535927Y-96552532D01*
X118563000Y-95579605D01*
X117590073Y-96552532D01*
X111708000Y-96552532D01*
X111708000Y-95135461D01*
X116917092Y-95135461D01*
X116941144Y-95785460D01*
X117143613Y-96274264D01*
X117410468Y-96372927D01*
X118383395Y-95400000D01*
X118742605Y-95400000D01*
X119715532Y-96372927D01*
X119982387Y-96274264D01*
X120208908Y-95664539D01*
X120184856Y-95014540D01*
X119982387Y-94525736D01*
X119715532Y-94427073D01*
X118742605Y-95400000D01*
X118383395Y-95400000D01*
X117410468Y-94427073D01*
X117143613Y-94525736D01*
X116917092Y-95135461D01*
X111708000Y-95135461D01*
X111708000Y-94247468D01*
X117590073Y-94247468D01*
X118563000Y-95220395D01*
X119535927Y-94247468D01*
X119437264Y-93980613D01*
X118827539Y-93754092D01*
X118177540Y-93778144D01*
X117688736Y-93980613D01*
X117590073Y-94247468D01*
X111708000Y-94247468D01*
X111708000Y-90052532D01*
X117590073Y-90052532D01*
X117688736Y-90319387D01*
X118298461Y-90545908D01*
X118948460Y-90521856D01*
X119437264Y-90319387D01*
X119535927Y-90052532D01*
X118563000Y-89079605D01*
X117590073Y-90052532D01*
X111708000Y-90052532D01*
X111708000Y-88635461D01*
X116917092Y-88635461D01*
X116941144Y-89285460D01*
X117143613Y-89774264D01*
X117410468Y-89872927D01*
X118383395Y-88900000D01*
X118742605Y-88900000D01*
X119715532Y-89872927D01*
X119982387Y-89774264D01*
X120208908Y-89164539D01*
X120184856Y-88514540D01*
X119982387Y-88025736D01*
X119715532Y-87927073D01*
X118742605Y-88900000D01*
X118383395Y-88900000D01*
X117410468Y-87927073D01*
X117143613Y-88025736D01*
X116917092Y-88635461D01*
X111708000Y-88635461D01*
X111708000Y-87747468D01*
X117590073Y-87747468D01*
X118563000Y-88720395D01*
X119535927Y-87747468D01*
X119437264Y-87480613D01*
X118827539Y-87254092D01*
X118177540Y-87278144D01*
X117688736Y-87480613D01*
X117590073Y-87747468D01*
X111708000Y-87747468D01*
X111708000Y-80295750D01*
X127243000Y-80295750D01*
X127243000Y-81036309D01*
X127339673Y-81269698D01*
X127518301Y-81448327D01*
X127653044Y-81504139D01*
X127476690Y-81680493D01*
X127243000Y-82244670D01*
X127243000Y-82855330D01*
X127476690Y-83419507D01*
X127908493Y-83851310D01*
X128472670Y-84085000D01*
X129083330Y-84085000D01*
X129647507Y-83851310D01*
X129913817Y-83585000D01*
X132486066Y-83585000D01*
X132588000Y-83605276D01*
X132689934Y-83585000D01*
X132689935Y-83585000D01*
X132991837Y-83524948D01*
X133334193Y-83296193D01*
X133391937Y-83209773D01*
X134521711Y-82080000D01*
X134778439Y-82080000D01*
X135305862Y-81861534D01*
X135709534Y-81457862D01*
X135928000Y-80930439D01*
X135928000Y-80359561D01*
X135709534Y-79832138D01*
X135305862Y-79428466D01*
X134778439Y-79210000D01*
X134207561Y-79210000D01*
X133680138Y-79428466D01*
X133276466Y-79832138D01*
X133058000Y-80359561D01*
X133058000Y-80616289D01*
X132159290Y-81515000D01*
X129913817Y-81515000D01*
X129902956Y-81504139D01*
X130037699Y-81448327D01*
X130216327Y-81269698D01*
X130313000Y-81036309D01*
X130313000Y-80295750D01*
X130154250Y-80137000D01*
X128905000Y-80137000D01*
X128905000Y-80157000D01*
X128651000Y-80157000D01*
X128651000Y-80137000D01*
X127401750Y-80137000D01*
X127243000Y-80295750D01*
X111708000Y-80295750D01*
X111708000Y-78983691D01*
X127243000Y-78983691D01*
X127243000Y-79724250D01*
X127401750Y-79883000D01*
X128651000Y-79883000D01*
X128651000Y-78633750D01*
X128905000Y-78633750D01*
X128905000Y-79883000D01*
X130154250Y-79883000D01*
X130313000Y-79724250D01*
X130313000Y-78983691D01*
X130216327Y-78750302D01*
X130037699Y-78571673D01*
X129804310Y-78475000D01*
X129063750Y-78475000D01*
X128905000Y-78633750D01*
X128651000Y-78633750D01*
X128492250Y-78475000D01*
X127751690Y-78475000D01*
X127518301Y-78571673D01*
X127339673Y-78750302D01*
X127243000Y-78983691D01*
X111708000Y-78983691D01*
X111708000Y-75609666D01*
X111770958Y-75111302D01*
X111939305Y-74686107D01*
X112208101Y-74316142D01*
X112560462Y-74024644D01*
X112974244Y-73829933D01*
X113456662Y-73737907D01*
X113549164Y-73735000D01*
X124296292Y-73735000D01*
X123977026Y-74054266D01*
X123977026Y-74054266D01*
G37*
X123977026Y-74054266D02*
X123571000Y-75034501D01*
X123571000Y-76095499D01*
X123977026Y-77075734D01*
X124727266Y-77825974D01*
X125707501Y-78232000D01*
X126768499Y-78232000D01*
X127748734Y-77825974D01*
X128498974Y-77075734D01*
X128652156Y-76705918D01*
X128713570Y-76797830D01*
X129209276Y-77129050D01*
X129794000Y-77245359D01*
X130378725Y-77129050D01*
X130874430Y-76797830D01*
X131064000Y-76514119D01*
X131253570Y-76797830D01*
X131749276Y-77129050D01*
X132334000Y-77245359D01*
X132918725Y-77129050D01*
X133414430Y-76797830D01*
X133604000Y-76514119D01*
X133793570Y-76797830D01*
X134289276Y-77129050D01*
X134874000Y-77245359D01*
X135458725Y-77129050D01*
X135954430Y-76797830D01*
X136147909Y-76508267D01*
X136511964Y-76915732D01*
X137039209Y-77169709D01*
X137054974Y-77172358D01*
X137287000Y-77051217D01*
X137287000Y-75692000D01*
X137267000Y-75692000D01*
X137267000Y-75438000D01*
X137287000Y-75438000D01*
X137287000Y-74078783D01*
X137054974Y-73957642D01*
X137039209Y-73960291D01*
X136511964Y-74214268D01*
X136147910Y-74621732D01*
X135954430Y-74332170D01*
X135458724Y-74000950D01*
X134874000Y-73884641D01*
X134289275Y-74000950D01*
X133793570Y-74332170D01*
X133604000Y-74615881D01*
X133414430Y-74332170D01*
X132918724Y-74000950D01*
X132334000Y-73884641D01*
X131749275Y-74000950D01*
X131253570Y-74332170D01*
X131064000Y-74615881D01*
X130874430Y-74332170D01*
X130378724Y-74000950D01*
X129794000Y-73884641D01*
X129209275Y-74000950D01*
X128713570Y-74332170D01*
X128652156Y-74424082D01*
X128498974Y-74054266D01*
X128179708Y-73735000D01*
X175219910Y-73735000D01*
X176328001Y-74843092D01*
X176328000Y-85909076D01*
X176314091Y-85979000D01*
X176328000Y-86048924D01*
X176328000Y-86048925D01*
X176369195Y-86256027D01*
X176526119Y-86490880D01*
X176585402Y-86530492D01*
X178868001Y-88813092D01*
X178868001Y-88863293D01*
X178548734Y-88544026D01*
X177568499Y-88138000D01*
X176507501Y-88138000D01*
X175527266Y-88544026D01*
X174777026Y-89294266D01*
X174371000Y-90274501D01*
X174371000Y-91335499D01*
X174777026Y-92315734D01*
X175527266Y-93065974D01*
X176507501Y-93472000D01*
X177568499Y-93472000D01*
X178548734Y-93065974D01*
X178868001Y-92746707D01*
X178868000Y-116803292D01*
X178548734Y-116484026D01*
X177568499Y-116078000D01*
X176507501Y-116078000D01*
X175527266Y-116484026D01*
X174777026Y-117234266D01*
X174371000Y-118214501D01*
X174371000Y-119275499D01*
X174777026Y-120255734D01*
X175527266Y-121005974D01*
X176507501Y-121412000D01*
X177568499Y-121412000D01*
X178548734Y-121005974D01*
X178868000Y-120686708D01*
X178868000Y-120990909D01*
X176585402Y-123273508D01*
X176526120Y-123313119D01*
X176384544Y-123525002D01*
X176369196Y-123547972D01*
X176314091Y-123825000D01*
X176328001Y-123894929D01*
X176328000Y-125655000D01*
X126909708Y-125655000D01*
X127228974Y-125335734D01*
X127635000Y-124355499D01*
X127635000Y-123525003D01*
X137439400Y-123525003D01*
X137439400Y-124124998D01*
X137526350Y-124562125D01*
X137857570Y-125057830D01*
X138353276Y-125389050D01*
X138938000Y-125505359D01*
X139522725Y-125389050D01*
X140018430Y-125057830D01*
X140208000Y-124774119D01*
X140397570Y-125057830D01*
X140893276Y-125389050D01*
X141478000Y-125505359D01*
X142062725Y-125389050D01*
X142558430Y-125057830D01*
X142748000Y-124774119D01*
X142937570Y-125057830D01*
X143433276Y-125389050D01*
X144018000Y-125505359D01*
X144602725Y-125389050D01*
X145098430Y-125057830D01*
X145288000Y-124774119D01*
X145477570Y-125057830D01*
X145973276Y-125389050D01*
X146558000Y-125505359D01*
X147142725Y-125389050D01*
X147638430Y-125057830D01*
X147828000Y-124774119D01*
X148017570Y-125057830D01*
X148513276Y-125389050D01*
X149098000Y-125505359D01*
X149682725Y-125389050D01*
X150178430Y-125057830D01*
X150371909Y-124768267D01*
X150735964Y-125175732D01*
X151263209Y-125429709D01*
X151278974Y-125432358D01*
X151511000Y-125311217D01*
X151511000Y-123952000D01*
X151765000Y-123952000D01*
X151765000Y-125311217D01*
X151997026Y-125432358D01*
X152012791Y-125429709D01*
X152540036Y-125175732D01*
X152908000Y-124763892D01*
X153275964Y-125175732D01*
X153803209Y-125429709D01*
X153818974Y-125432358D01*
X154051000Y-125311217D01*
X154051000Y-123952000D01*
X151765000Y-123952000D01*
X151511000Y-123952000D01*
X151491000Y-123952000D01*
X151491000Y-123698000D01*
X151511000Y-123698000D01*
X151511000Y-122338783D01*
X151765000Y-122338783D01*
X151765000Y-123698000D01*
X154051000Y-123698000D01*
X154051000Y-122338783D01*
X154305000Y-122338783D01*
X154305000Y-123698000D01*
X154325000Y-123698000D01*
X154325000Y-123952000D01*
X154305000Y-123952000D01*
X154305000Y-125311217D01*
X154537026Y-125432358D01*
X154552791Y-125429709D01*
X155080036Y-125175732D01*
X155444090Y-124768268D01*
X155637570Y-125057830D01*
X156133276Y-125389050D01*
X156718000Y-125505359D01*
X157302725Y-125389050D01*
X157798430Y-125057830D01*
X158129650Y-124562124D01*
X158216600Y-124124997D01*
X158216600Y-123525003D01*
X160299400Y-123525003D01*
X160299400Y-124124998D01*
X160386350Y-124562125D01*
X160717570Y-125057830D01*
X161213276Y-125389050D01*
X161798000Y-125505359D01*
X162382725Y-125389050D01*
X162878430Y-125057830D01*
X163068000Y-124774119D01*
X163257570Y-125057830D01*
X163753276Y-125389050D01*
X164338000Y-125505359D01*
X164922725Y-125389050D01*
X165418430Y-125057830D01*
X165608000Y-124774119D01*
X165797570Y-125057830D01*
X166293276Y-125389050D01*
X166878000Y-125505359D01*
X167462725Y-125389050D01*
X167958430Y-125057830D01*
X168148000Y-124774119D01*
X168337570Y-125057830D01*
X168833276Y-125389050D01*
X169418000Y-125505359D01*
X170002725Y-125389050D01*
X170498430Y-125057830D01*
X170688000Y-124774119D01*
X170877570Y-125057830D01*
X171373276Y-125389050D01*
X171958000Y-125505359D01*
X172542725Y-125389050D01*
X173038430Y-125057830D01*
X173228000Y-124774119D01*
X173417570Y-125057830D01*
X173913276Y-125389050D01*
X174498000Y-125505359D01*
X175082725Y-125389050D01*
X175578430Y-125057830D01*
X175909650Y-124562124D01*
X175996600Y-124124997D01*
X175996600Y-123525002D01*
X175909650Y-123087875D01*
X175578430Y-122592170D01*
X175082724Y-122260950D01*
X174498000Y-122144641D01*
X173913275Y-122260950D01*
X173417570Y-122592170D01*
X173228000Y-122875881D01*
X173038430Y-122592170D01*
X172542724Y-122260950D01*
X171958000Y-122144641D01*
X171373275Y-122260950D01*
X170877570Y-122592170D01*
X170688000Y-122875881D01*
X170498430Y-122592170D01*
X170002724Y-122260950D01*
X169418000Y-122144641D01*
X168833275Y-122260950D01*
X168337570Y-122592170D01*
X168148000Y-122875881D01*
X167958430Y-122592170D01*
X167462724Y-122260950D01*
X166878000Y-122144641D01*
X166293275Y-122260950D01*
X165797570Y-122592170D01*
X165608000Y-122875881D01*
X165418430Y-122592170D01*
X164922724Y-122260950D01*
X164338000Y-122144641D01*
X163753275Y-122260950D01*
X163257570Y-122592170D01*
X163068000Y-122875881D01*
X162878430Y-122592170D01*
X162382724Y-122260950D01*
X161798000Y-122144641D01*
X161213275Y-122260950D01*
X160717570Y-122592170D01*
X160386350Y-123087876D01*
X160299400Y-123525003D01*
X158216600Y-123525003D01*
X158216600Y-123525002D01*
X158129650Y-123087875D01*
X157798430Y-122592170D01*
X157302724Y-122260950D01*
X156718000Y-122144641D01*
X156133275Y-122260950D01*
X155637570Y-122592170D01*
X155444091Y-122881733D01*
X155080036Y-122474268D01*
X154552791Y-122220291D01*
X154537026Y-122217642D01*
X154305000Y-122338783D01*
X154051000Y-122338783D01*
X153818974Y-122217642D01*
X153803209Y-122220291D01*
X153275964Y-122474268D01*
X152908000Y-122886108D01*
X152540036Y-122474268D01*
X152012791Y-122220291D01*
X151997026Y-122217642D01*
X151765000Y-122338783D01*
X151511000Y-122338783D01*
X151278974Y-122217642D01*
X151263209Y-122220291D01*
X150735964Y-122474268D01*
X150371910Y-122881732D01*
X150178430Y-122592170D01*
X149682724Y-122260950D01*
X149098000Y-122144641D01*
X148513275Y-122260950D01*
X148017570Y-122592170D01*
X147828000Y-122875881D01*
X147638430Y-122592170D01*
X147142724Y-122260950D01*
X146558000Y-122144641D01*
X145973275Y-122260950D01*
X145477570Y-122592170D01*
X145288000Y-122875881D01*
X145098430Y-122592170D01*
X144602724Y-122260950D01*
X144018000Y-122144641D01*
X143433275Y-122260950D01*
X142937570Y-122592170D01*
X142748000Y-122875881D01*
X142558430Y-122592170D01*
X142062724Y-122260950D01*
X141478000Y-122144641D01*
X140893275Y-122260950D01*
X140397570Y-122592170D01*
X140208000Y-122875881D01*
X140018430Y-122592170D01*
X139522724Y-122260950D01*
X138938000Y-122144641D01*
X138353275Y-122260950D01*
X137857570Y-122592170D01*
X137526350Y-123087876D01*
X137439400Y-123525003D01*
X127635000Y-123525003D01*
X127635000Y-123294501D01*
X127228974Y-122314266D01*
X126478734Y-121564026D01*
X125498499Y-121158000D01*
X124437501Y-121158000D01*
X123457266Y-121564026D01*
X122707026Y-122314266D01*
X122301000Y-123294501D01*
X122301000Y-124355499D01*
X122707026Y-125335734D01*
X123026292Y-125655000D01*
X113582667Y-125655000D01*
X113084301Y-125592042D01*
X112659111Y-125423697D01*
X112289141Y-125154899D01*
X111997645Y-124802541D01*
X111802933Y-124388756D01*
X111710907Y-123906339D01*
X111708000Y-123813836D01*
X111708000Y-114672745D01*
X133664861Y-114672745D01*
X133738995Y-114918864D01*
X134276223Y-115111965D01*
X134846454Y-115084778D01*
X135247005Y-114918864D01*
X135321139Y-114672745D01*
X148904861Y-114672745D01*
X148978995Y-114918864D01*
X149516223Y-115111965D01*
X150086454Y-115084778D01*
X150487005Y-114918864D01*
X150561139Y-114672745D01*
X149733000Y-113844605D01*
X148904861Y-114672745D01*
X135321139Y-114672745D01*
X134493000Y-113844605D01*
X133664861Y-114672745D01*
X111708000Y-114672745D01*
X111708000Y-113448223D01*
X133046035Y-113448223D01*
X133073222Y-114018454D01*
X133239136Y-114419005D01*
X133485255Y-114493139D01*
X134313395Y-113665000D01*
X134672605Y-113665000D01*
X135500745Y-114493139D01*
X135746864Y-114419005D01*
X135939965Y-113881777D01*
X135912778Y-113311546D01*
X135746864Y-112910995D01*
X135500745Y-112836861D01*
X134672605Y-113665000D01*
X134313395Y-113665000D01*
X133485255Y-112836861D01*
X133239136Y-112910995D01*
X133046035Y-113448223D01*
X111708000Y-113448223D01*
X111708000Y-110879561D01*
X133058000Y-110879561D01*
X133058000Y-111450439D01*
X133276466Y-111977862D01*
X133680138Y-112381534D01*
X133745299Y-112408525D01*
X133738995Y-112411136D01*
X133664861Y-112657255D01*
X134493000Y-113485395D01*
X135321139Y-112657255D01*
X135247005Y-112411136D01*
X135240254Y-112408710D01*
X135305862Y-112381534D01*
X135487396Y-112200000D01*
X138114290Y-112200000D01*
X138388000Y-112473710D01*
X138388000Y-112670494D01*
X138598853Y-113179540D01*
X138988460Y-113569147D01*
X139497506Y-113780000D01*
X140048494Y-113780000D01*
X140557540Y-113569147D01*
X140947147Y-113179540D01*
X141158000Y-112670494D01*
X141158000Y-112473711D01*
X141502776Y-112128935D01*
X141589193Y-112071193D01*
X141817948Y-111728837D01*
X141878000Y-111426935D01*
X141898276Y-111325000D01*
X141878000Y-111223066D01*
X141878000Y-108748944D01*
X142113000Y-108397241D01*
X142348000Y-108748943D01*
X142348001Y-111023061D01*
X142327724Y-111125000D01*
X142408052Y-111528836D01*
X142408053Y-111528837D01*
X142636808Y-111871193D01*
X142723225Y-111928935D01*
X143268000Y-112473710D01*
X143268000Y-112670494D01*
X143478853Y-113179540D01*
X143868460Y-113569147D01*
X144377506Y-113780000D01*
X144928494Y-113780000D01*
X145437540Y-113569147D01*
X145558464Y-113448223D01*
X148286035Y-113448223D01*
X148313222Y-114018454D01*
X148479136Y-114419005D01*
X148725255Y-114493139D01*
X149553395Y-113665000D01*
X149912605Y-113665000D01*
X150740745Y-114493139D01*
X150986864Y-114419005D01*
X151179965Y-113881777D01*
X151152778Y-113311546D01*
X150986864Y-112910995D01*
X150740745Y-112836861D01*
X149912605Y-113665000D01*
X149553395Y-113665000D01*
X148725255Y-112836861D01*
X148479136Y-112910995D01*
X148286035Y-113448223D01*
X145558464Y-113448223D01*
X145827147Y-113179540D01*
X146038000Y-112670494D01*
X146038000Y-112473711D01*
X146311711Y-112200000D01*
X148738604Y-112200000D01*
X148920138Y-112381534D01*
X148985299Y-112408525D01*
X148978995Y-112411136D01*
X148904861Y-112657255D01*
X149733000Y-113485395D01*
X150561139Y-112657255D01*
X150487005Y-112411136D01*
X150480254Y-112408710D01*
X150545862Y-112381534D01*
X150949534Y-111977862D01*
X151168000Y-111450439D01*
X151168000Y-110879561D01*
X150949534Y-110352138D01*
X150545862Y-109948466D01*
X150018439Y-109730000D01*
X149447561Y-109730000D01*
X148920138Y-109948466D01*
X148738604Y-110130000D01*
X145984934Y-110130000D01*
X145883000Y-110109724D01*
X145781065Y-110130000D01*
X145479163Y-110190052D01*
X145136807Y-110418807D01*
X145079065Y-110505224D01*
X144653000Y-110931289D01*
X144418000Y-110696290D01*
X144418000Y-108748944D01*
X144653000Y-108397241D01*
X144888424Y-108749577D01*
X145363092Y-109066740D01*
X145923000Y-109178113D01*
X146482909Y-109066740D01*
X146957577Y-108749577D01*
X147193000Y-108397241D01*
X147428424Y-108749577D01*
X147903092Y-109066740D01*
X148463000Y-109178113D01*
X149022909Y-109066740D01*
X149497577Y-108749577D01*
X149733000Y-108397241D01*
X149968424Y-108749577D01*
X150443092Y-109066740D01*
X151003000Y-109178113D01*
X151562909Y-109066740D01*
X152037577Y-108749577D01*
X152273000Y-108397241D01*
X152508424Y-108749577D01*
X152983092Y-109066740D01*
X153543000Y-109178113D01*
X154102909Y-109066740D01*
X154577577Y-108749577D01*
X154894740Y-108274909D01*
X154978000Y-107856332D01*
X154978000Y-106773667D01*
X154894740Y-106355091D01*
X154577576Y-105880423D01*
X154102908Y-105563260D01*
X153543000Y-105451887D01*
X152983091Y-105563260D01*
X152508423Y-105880424D01*
X152273000Y-106232759D01*
X152037576Y-105880423D01*
X151562908Y-105563260D01*
X151003000Y-105451887D01*
X150443091Y-105563260D01*
X149968423Y-105880424D01*
X149733000Y-106232759D01*
X149497576Y-105880423D01*
X149022908Y-105563260D01*
X148463000Y-105451887D01*
X147903091Y-105563260D01*
X147428423Y-105880424D01*
X147193000Y-106232759D01*
X146957576Y-105880423D01*
X146482908Y-105563260D01*
X145923000Y-105451887D01*
X145363091Y-105563260D01*
X144888423Y-105880424D01*
X144653000Y-106232759D01*
X144417576Y-105880423D01*
X143942908Y-105563260D01*
X143383000Y-105451887D01*
X142823091Y-105563260D01*
X142348423Y-105880424D01*
X142113000Y-106232759D01*
X141877576Y-105880423D01*
X141402908Y-105563260D01*
X140843000Y-105451887D01*
X140283091Y-105563260D01*
X139808423Y-105880424D01*
X139570501Y-106236499D01*
X139227896Y-105810500D01*
X138734819Y-105540633D01*
X138652039Y-105523096D01*
X138430000Y-105645085D01*
X138430000Y-107188000D01*
X138450000Y-107188000D01*
X138450000Y-107442000D01*
X138430000Y-107442000D01*
X138430000Y-108984915D01*
X138652039Y-109106904D01*
X138734819Y-109089367D01*
X139227896Y-108819500D01*
X139570501Y-108393501D01*
X139808000Y-108748943D01*
X139808001Y-110896288D01*
X139773000Y-110931289D01*
X139346937Y-110505227D01*
X139289193Y-110418807D01*
X138946837Y-110190052D01*
X138644935Y-110130000D01*
X138644934Y-110130000D01*
X138543000Y-110109724D01*
X138441066Y-110130000D01*
X135487396Y-110130000D01*
X135305862Y-109948466D01*
X134778439Y-109730000D01*
X134207561Y-109730000D01*
X133680138Y-109948466D01*
X133276466Y-110352138D01*
X133058000Y-110879561D01*
X111708000Y-110879561D01*
X111708000Y-101125087D01*
X115657724Y-101125087D01*
X115678000Y-101227022D01*
X115678001Y-104038061D01*
X115657724Y-104140000D01*
X115738052Y-104543836D01*
X115738053Y-104543837D01*
X115966808Y-104886193D01*
X116053225Y-104943935D01*
X116544063Y-105434773D01*
X116601807Y-105521193D01*
X116944163Y-105749948D01*
X117348000Y-105830276D01*
X117449934Y-105810000D01*
X117954290Y-105810000D01*
X119075560Y-106931271D01*
X119075560Y-108515000D01*
X119124843Y-108762765D01*
X119265191Y-108972809D01*
X119475235Y-109113157D01*
X119723000Y-109162440D01*
X121323000Y-109162440D01*
X121570765Y-109113157D01*
X121780809Y-108972809D01*
X121921157Y-108762765D01*
X121947785Y-108628893D01*
X122028424Y-108749577D01*
X122503092Y-109066740D01*
X123063000Y-109178113D01*
X123622909Y-109066740D01*
X124097577Y-108749577D01*
X124333000Y-108397241D01*
X124568424Y-108749577D01*
X125043092Y-109066740D01*
X125603000Y-109178113D01*
X126162909Y-109066740D01*
X126637577Y-108749577D01*
X126873000Y-108397241D01*
X127108424Y-108749577D01*
X127583092Y-109066740D01*
X128143000Y-109178113D01*
X128702909Y-109066740D01*
X129177577Y-108749577D01*
X129413000Y-108397241D01*
X129648424Y-108749577D01*
X130123092Y-109066740D01*
X130683000Y-109178113D01*
X131242909Y-109066740D01*
X131717577Y-108749577D01*
X131953000Y-108397241D01*
X132188424Y-108749577D01*
X132663092Y-109066740D01*
X133223000Y-109178113D01*
X133782909Y-109066740D01*
X134257577Y-108749577D01*
X134493000Y-108397241D01*
X134728424Y-108749577D01*
X135203092Y-109066740D01*
X135763000Y-109178113D01*
X136322909Y-109066740D01*
X136797577Y-108749577D01*
X137035499Y-108393501D01*
X137378104Y-108819500D01*
X137871181Y-109089367D01*
X137953961Y-109106904D01*
X138176000Y-108984915D01*
X138176000Y-107442000D01*
X138156000Y-107442000D01*
X138156000Y-107188000D01*
X138176000Y-107188000D01*
X138176000Y-105645085D01*
X137953961Y-105523096D01*
X137871181Y-105540633D01*
X137378104Y-105810500D01*
X137035499Y-106236499D01*
X136797576Y-105880423D01*
X136322908Y-105563260D01*
X135763000Y-105451887D01*
X135203091Y-105563260D01*
X134728423Y-105880424D01*
X134493000Y-106232759D01*
X134257576Y-105880423D01*
X133782908Y-105563260D01*
X133223000Y-105451887D01*
X132663091Y-105563260D01*
X132188423Y-105880424D01*
X131953000Y-106232759D01*
X131717576Y-105880423D01*
X131242908Y-105563260D01*
X130683000Y-105451887D01*
X130123091Y-105563260D01*
X129648423Y-105880424D01*
X129413000Y-106232759D01*
X129177576Y-105880423D01*
X128702908Y-105563260D01*
X128143000Y-105451887D01*
X127583091Y-105563260D01*
X127108423Y-105880424D01*
X126873000Y-106232759D01*
X126637576Y-105880423D01*
X126162908Y-105563260D01*
X125603000Y-105451887D01*
X125043091Y-105563260D01*
X124568423Y-105880424D01*
X124333000Y-106232759D01*
X124097576Y-105880423D01*
X123622908Y-105563260D01*
X123063000Y-105451887D01*
X122503091Y-105563260D01*
X122028423Y-105880424D01*
X121947785Y-106001107D01*
X121921157Y-105867235D01*
X121780809Y-105657191D01*
X121570765Y-105516843D01*
X121323000Y-105467560D01*
X120539271Y-105467560D01*
X119186937Y-104115227D01*
X119129193Y-104028807D01*
X118786837Y-103800052D01*
X118484935Y-103740000D01*
X118484934Y-103740000D01*
X118383000Y-103719724D01*
X118281066Y-103740000D01*
X117776710Y-103740000D01*
X117748000Y-103711290D01*
X117748000Y-101553797D01*
X119088000Y-100213797D01*
X119088000Y-100236333D01*
X119171260Y-100654909D01*
X119488424Y-101129577D01*
X119963092Y-101446740D01*
X120523000Y-101558113D01*
X121082909Y-101446740D01*
X121557577Y-101129577D01*
X121793000Y-100777241D01*
X122028424Y-101129577D01*
X122503092Y-101446740D01*
X123063000Y-101558113D01*
X123622909Y-101446740D01*
X124097577Y-101129577D01*
X124333000Y-100777241D01*
X124568424Y-101129577D01*
X125043092Y-101446740D01*
X125603000Y-101558113D01*
X126162909Y-101446740D01*
X126637577Y-101129577D01*
X126873000Y-100777241D01*
X127108424Y-101129577D01*
X127583092Y-101446740D01*
X128143000Y-101558113D01*
X128702909Y-101446740D01*
X129177577Y-101129577D01*
X129413000Y-100777241D01*
X129648424Y-101129577D01*
X130123092Y-101446740D01*
X130683000Y-101558113D01*
X131242909Y-101446740D01*
X131717577Y-101129577D01*
X131953000Y-100777241D01*
X132188424Y-101129577D01*
X132663092Y-101446740D01*
X133223000Y-101558113D01*
X133782909Y-101446740D01*
X134257577Y-101129577D01*
X134495499Y-100773501D01*
X134838104Y-101199500D01*
X135331181Y-101469367D01*
X135413961Y-101486904D01*
X135636000Y-101364915D01*
X135636000Y-99822000D01*
X135616000Y-99822000D01*
X135616000Y-99568000D01*
X135636000Y-99568000D01*
X135636000Y-98025085D01*
X135890000Y-98025085D01*
X135890000Y-99568000D01*
X135910000Y-99568000D01*
X135910000Y-99822000D01*
X135890000Y-99822000D01*
X135890000Y-101364915D01*
X136112039Y-101486904D01*
X136194819Y-101469367D01*
X136687896Y-101199500D01*
X137030501Y-100773501D01*
X137268424Y-101129577D01*
X137743092Y-101446740D01*
X138303000Y-101558113D01*
X138862909Y-101446740D01*
X139337577Y-101129577D01*
X139573000Y-100777241D01*
X139808424Y-101129577D01*
X140283092Y-101446740D01*
X140843000Y-101558113D01*
X141402909Y-101446740D01*
X141877577Y-101129577D01*
X142113000Y-100777241D01*
X142348424Y-101129577D01*
X142823092Y-101446740D01*
X143383000Y-101558113D01*
X143942909Y-101446740D01*
X144417577Y-101129577D01*
X144653000Y-100777241D01*
X144888424Y-101129577D01*
X145363092Y-101446740D01*
X145923000Y-101558113D01*
X146482909Y-101446740D01*
X146957577Y-101129577D01*
X147193000Y-100777241D01*
X147428424Y-101129577D01*
X147903092Y-101446740D01*
X148463000Y-101558113D01*
X149022909Y-101446740D01*
X149497577Y-101129577D01*
X149733000Y-100777241D01*
X149968424Y-101129577D01*
X150443092Y-101446740D01*
X151003000Y-101558113D01*
X151562909Y-101446740D01*
X152037577Y-101129577D01*
X152273000Y-100777241D01*
X152508424Y-101129577D01*
X152983092Y-101446740D01*
X153543000Y-101558113D01*
X154102909Y-101446740D01*
X154577577Y-101129577D01*
X154894740Y-100654909D01*
X154978000Y-100236332D01*
X154978000Y-99153667D01*
X154894740Y-98735091D01*
X154577576Y-98260423D01*
X154102908Y-97943260D01*
X153543000Y-97831887D01*
X152983091Y-97943260D01*
X152508423Y-98260424D01*
X152273000Y-98612759D01*
X152037576Y-98260423D01*
X151562908Y-97943260D01*
X151003000Y-97831887D01*
X150443091Y-97943260D01*
X149968423Y-98260424D01*
X149733000Y-98612759D01*
X149498000Y-98261058D01*
X149498000Y-94900750D01*
X162803000Y-94900750D01*
X162803000Y-95641309D01*
X162899673Y-95874698D01*
X163078301Y-96053327D01*
X163311690Y-96150000D01*
X164052250Y-96150000D01*
X164211000Y-95991250D01*
X164211000Y-94742000D01*
X164465000Y-94742000D01*
X164465000Y-95991250D01*
X164623750Y-96150000D01*
X165364310Y-96150000D01*
X165597699Y-96053327D01*
X165776327Y-95874698D01*
X165873000Y-95641309D01*
X165873000Y-94900750D01*
X165714250Y-94742000D01*
X164465000Y-94742000D01*
X164211000Y-94742000D01*
X162961750Y-94742000D01*
X162803000Y-94900750D01*
X149498000Y-94900750D01*
X149498000Y-90519561D01*
X150838000Y-90519561D01*
X150838000Y-91090439D01*
X151056466Y-91617862D01*
X151460138Y-92021534D01*
X151987561Y-92240000D01*
X152558439Y-92240000D01*
X153085862Y-92021534D01*
X153489534Y-91617862D01*
X153708000Y-91090439D01*
X153708000Y-90833710D01*
X153736710Y-90805000D01*
X158429887Y-90805000D01*
X158541260Y-91364909D01*
X158858423Y-91839577D01*
X159333091Y-92156740D01*
X159751667Y-92240000D01*
X159864289Y-92240000D01*
X160359065Y-92734776D01*
X160416807Y-92821193D01*
X160759163Y-93049948D01*
X161162999Y-93130276D01*
X161264934Y-93110000D01*
X163202183Y-93110000D01*
X163213044Y-93120861D01*
X163078301Y-93176673D01*
X162899673Y-93355302D01*
X162803000Y-93588691D01*
X162803000Y-94329250D01*
X162961750Y-94488000D01*
X164211000Y-94488000D01*
X164211000Y-94468000D01*
X164465000Y-94468000D01*
X164465000Y-94488000D01*
X165714250Y-94488000D01*
X165873000Y-94329250D01*
X165873000Y-93588691D01*
X165776327Y-93355302D01*
X165597699Y-93176673D01*
X165462956Y-93120861D01*
X165639310Y-92944507D01*
X165873000Y-92380330D01*
X165873000Y-91769670D01*
X165639310Y-91205493D01*
X165207507Y-90773690D01*
X164643330Y-90540000D01*
X164032670Y-90540000D01*
X163468493Y-90773690D01*
X163202183Y-91040000D01*
X161591711Y-91040000D01*
X161355965Y-90804254D01*
X161244740Y-90245091D01*
X160927577Y-89770423D01*
X160452909Y-89453260D01*
X160034333Y-89370000D01*
X159751667Y-89370000D01*
X159333091Y-89453260D01*
X158858423Y-89770423D01*
X158541260Y-90245091D01*
X158429887Y-90805000D01*
X153736710Y-90805000D01*
X155990960Y-88550750D01*
X162803000Y-88550750D01*
X162803000Y-89291309D01*
X162899673Y-89524698D01*
X163078301Y-89703327D01*
X163311690Y-89800000D01*
X164052250Y-89800000D01*
X164211000Y-89641250D01*
X164211000Y-88392000D01*
X164465000Y-88392000D01*
X164465000Y-89641250D01*
X164623750Y-89800000D01*
X165364310Y-89800000D01*
X165597699Y-89703327D01*
X165776327Y-89524698D01*
X165873000Y-89291309D01*
X165873000Y-88550750D01*
X165714250Y-88392000D01*
X164465000Y-88392000D01*
X164211000Y-88392000D01*
X162961750Y-88392000D01*
X162803000Y-88550750D01*
X155990960Y-88550750D01*
X157377776Y-87163935D01*
X157464193Y-87106193D01*
X157692948Y-86763837D01*
X157747242Y-86490881D01*
X157773276Y-86360001D01*
X157753000Y-86258066D01*
X157753000Y-85725000D01*
X158429887Y-85725000D01*
X158541260Y-86284909D01*
X158858423Y-86759577D01*
X159333091Y-87076740D01*
X159751667Y-87160000D01*
X160034333Y-87160000D01*
X160452909Y-87076740D01*
X160926944Y-86760000D01*
X163202183Y-86760000D01*
X163213044Y-86770861D01*
X163078301Y-86826673D01*
X162899673Y-87005302D01*
X162803000Y-87238691D01*
X162803000Y-87979250D01*
X162961750Y-88138000D01*
X164211000Y-88138000D01*
X164211000Y-88118000D01*
X164465000Y-88118000D01*
X164465000Y-88138000D01*
X165714250Y-88138000D01*
X165873000Y-87979250D01*
X165873000Y-87238691D01*
X165776327Y-87005302D01*
X165597699Y-86826673D01*
X165462956Y-86770861D01*
X165639310Y-86594507D01*
X165873000Y-86030330D01*
X165873000Y-85419670D01*
X165639310Y-84855493D01*
X165207507Y-84423690D01*
X164643330Y-84190000D01*
X164032670Y-84190000D01*
X163468493Y-84423690D01*
X163202183Y-84690000D01*
X160926944Y-84690000D01*
X160452909Y-84373260D01*
X160034333Y-84290000D01*
X159751667Y-84290000D01*
X159333091Y-84373260D01*
X158858423Y-84690423D01*
X158541260Y-85165091D01*
X158429887Y-85725000D01*
X157753000Y-85725000D01*
X157753000Y-82200750D01*
X162803000Y-82200750D01*
X162803000Y-82941309D01*
X162899673Y-83174698D01*
X163078301Y-83353327D01*
X163311690Y-83450000D01*
X164052250Y-83450000D01*
X164211000Y-83291250D01*
X164211000Y-82042000D01*
X164465000Y-82042000D01*
X164465000Y-83291250D01*
X164623750Y-83450000D01*
X165364310Y-83450000D01*
X165597699Y-83353327D01*
X165776327Y-83174698D01*
X165873000Y-82941309D01*
X165873000Y-82200750D01*
X165714250Y-82042000D01*
X164465000Y-82042000D01*
X164211000Y-82042000D01*
X162961750Y-82042000D01*
X162803000Y-82200750D01*
X157753000Y-82200750D01*
X157753000Y-80645000D01*
X158429887Y-80645000D01*
X158541260Y-81204909D01*
X158858423Y-81679577D01*
X159333091Y-81996740D01*
X159751667Y-82080000D01*
X160034333Y-82080000D01*
X160452909Y-81996740D01*
X160927577Y-81679577D01*
X161244740Y-81204909D01*
X161355965Y-80645746D01*
X161591711Y-80410000D01*
X163202183Y-80410000D01*
X163213044Y-80420861D01*
X163078301Y-80476673D01*
X162899673Y-80655302D01*
X162803000Y-80888691D01*
X162803000Y-81629250D01*
X162961750Y-81788000D01*
X164211000Y-81788000D01*
X164211000Y-81768000D01*
X164465000Y-81768000D01*
X164465000Y-81788000D01*
X165714250Y-81788000D01*
X165873000Y-81629250D01*
X165873000Y-80888691D01*
X165776327Y-80655302D01*
X165597699Y-80476673D01*
X165462956Y-80420861D01*
X165639310Y-80244507D01*
X165873000Y-79680330D01*
X165873000Y-79069670D01*
X165639310Y-78505493D01*
X165207507Y-78073690D01*
X164643330Y-77840000D01*
X164032670Y-77840000D01*
X163468493Y-78073690D01*
X163202183Y-78340000D01*
X161264934Y-78340000D01*
X161162999Y-78319724D01*
X161061065Y-78340000D01*
X160759163Y-78400052D01*
X160416807Y-78628807D01*
X160359065Y-78715224D01*
X159864289Y-79210000D01*
X159751667Y-79210000D01*
X159333091Y-79293260D01*
X158858423Y-79610423D01*
X158541260Y-80085091D01*
X158429887Y-80645000D01*
X157753000Y-80645000D01*
X157753000Y-76828185D01*
X157798430Y-76797830D01*
X157988000Y-76514119D01*
X158177570Y-76797830D01*
X158673276Y-77129050D01*
X159258000Y-77245359D01*
X159842725Y-77129050D01*
X160338430Y-76797830D01*
X160528000Y-76514119D01*
X160717570Y-76797830D01*
X161213276Y-77129050D01*
X161798000Y-77245359D01*
X162382725Y-77129050D01*
X162878430Y-76797830D01*
X163068000Y-76514119D01*
X163257570Y-76797830D01*
X163753276Y-77129050D01*
X164338000Y-77245359D01*
X164922725Y-77129050D01*
X165418430Y-76797830D01*
X165608000Y-76514119D01*
X165797570Y-76797830D01*
X166293276Y-77129050D01*
X166878000Y-77245359D01*
X167462725Y-77129050D01*
X167958430Y-76797830D01*
X168148000Y-76514119D01*
X168337570Y-76797830D01*
X168833276Y-77129050D01*
X169418000Y-77245359D01*
X170002725Y-77129050D01*
X170498430Y-76797830D01*
X170688000Y-76514119D01*
X170877570Y-76797830D01*
X171373276Y-77129050D01*
X171958000Y-77245359D01*
X172542725Y-77129050D01*
X173038430Y-76797830D01*
X173228000Y-76514119D01*
X173417570Y-76797830D01*
X173913276Y-77129050D01*
X174498000Y-77245359D01*
X175082725Y-77129050D01*
X175578430Y-76797830D01*
X175909650Y-76302124D01*
X175996600Y-75864997D01*
X175996600Y-75265002D01*
X175909650Y-74827875D01*
X175578430Y-74332170D01*
X175082724Y-74000950D01*
X174498000Y-73884641D01*
X173913275Y-74000950D01*
X173417570Y-74332170D01*
X173228000Y-74615881D01*
X173038430Y-74332170D01*
X172542724Y-74000950D01*
X171958000Y-73884641D01*
X171373275Y-74000950D01*
X170877570Y-74332170D01*
X170688000Y-74615881D01*
X170498430Y-74332170D01*
X170002724Y-74000950D01*
X169418000Y-73884641D01*
X168833275Y-74000950D01*
X168337570Y-74332170D01*
X168148000Y-74615881D01*
X167958430Y-74332170D01*
X167462724Y-74000950D01*
X166878000Y-73884641D01*
X166293275Y-74000950D01*
X165797570Y-74332170D01*
X165608000Y-74615881D01*
X165418430Y-74332170D01*
X164922724Y-74000950D01*
X164338000Y-73884641D01*
X163753275Y-74000950D01*
X163257570Y-74332170D01*
X163068000Y-74615881D01*
X162878430Y-74332170D01*
X162382724Y-74000950D01*
X161798000Y-73884641D01*
X161213275Y-74000950D01*
X160717570Y-74332170D01*
X160528000Y-74615881D01*
X160338430Y-74332170D01*
X159842724Y-74000950D01*
X159258000Y-73884641D01*
X158673275Y-74000950D01*
X158177570Y-74332170D01*
X157988000Y-74615881D01*
X157798430Y-74332170D01*
X157302724Y-74000950D01*
X156718000Y-73884641D01*
X156133275Y-74000950D01*
X155637570Y-74332170D01*
X155306350Y-74827876D01*
X155219400Y-75265003D01*
X155219400Y-75864998D01*
X155306350Y-76302125D01*
X155637570Y-76797830D01*
X155683000Y-76828185D01*
X155683001Y-85931288D01*
X152244290Y-89370000D01*
X151987561Y-89370000D01*
X151460138Y-89588466D01*
X151056466Y-89992138D01*
X150838000Y-90519561D01*
X149498000Y-90519561D01*
X149498000Y-84413710D01*
X150838000Y-85753711D01*
X150838000Y-86010439D01*
X151056466Y-86537862D01*
X151460138Y-86941534D01*
X151987561Y-87160000D01*
X152558439Y-87160000D01*
X153085862Y-86941534D01*
X153489534Y-86537862D01*
X153708000Y-86010439D01*
X153708000Y-85439561D01*
X153489534Y-84912138D01*
X153085862Y-84508466D01*
X152558439Y-84290000D01*
X152301711Y-84290000D01*
X151149000Y-83137290D01*
X151149000Y-81550396D01*
X151460138Y-81861534D01*
X151987561Y-82080000D01*
X152558439Y-82080000D01*
X153085862Y-81861534D01*
X153489534Y-81457862D01*
X153708000Y-80930439D01*
X153708000Y-80359561D01*
X153696020Y-80330640D01*
X153709276Y-80264001D01*
X153689000Y-80162068D01*
X153689000Y-76828185D01*
X153734430Y-76797830D01*
X154065650Y-76302124D01*
X154152600Y-75864997D01*
X154152600Y-75265002D01*
X154065650Y-74827875D01*
X153734430Y-74332170D01*
X153238724Y-74000950D01*
X152654000Y-73884641D01*
X152069275Y-74000950D01*
X151573570Y-74332170D01*
X151384000Y-74615881D01*
X151194430Y-74332170D01*
X150698724Y-74000950D01*
X150114000Y-73884641D01*
X149529275Y-74000950D01*
X149033570Y-74332170D01*
X148844000Y-74615881D01*
X148654430Y-74332170D01*
X148158724Y-74000950D01*
X147574000Y-73884641D01*
X146989275Y-74000950D01*
X146493570Y-74332170D01*
X146304000Y-74615881D01*
X146114430Y-74332170D01*
X145618724Y-74000950D01*
X145034000Y-73884641D01*
X144449275Y-74000950D01*
X143953570Y-74332170D01*
X143764000Y-74615881D01*
X143574430Y-74332170D01*
X143078724Y-74000950D01*
X142494000Y-73884641D01*
X141909275Y-74000950D01*
X141413570Y-74332170D01*
X141224000Y-74615881D01*
X141034430Y-74332170D01*
X140538724Y-74000950D01*
X139954000Y-73884641D01*
X139369275Y-74000950D01*
X138873570Y-74332170D01*
X138680091Y-74621733D01*
X138316036Y-74214268D01*
X137788791Y-73960291D01*
X137773026Y-73957642D01*
X137541000Y-74078783D01*
X137541000Y-75438000D01*
X137561000Y-75438000D01*
X137561000Y-75692000D01*
X137541000Y-75692000D01*
X137541000Y-77051217D01*
X137773026Y-77172358D01*
X137788791Y-77169709D01*
X138316036Y-76915732D01*
X138680090Y-76508268D01*
X138873570Y-76797830D01*
X138919000Y-76828186D01*
X138919001Y-78384061D01*
X138898724Y-78486000D01*
X138979052Y-78889836D01*
X139149044Y-79144246D01*
X139207808Y-79232193D01*
X139294225Y-79289935D01*
X140650035Y-80645746D01*
X140761260Y-81204909D01*
X141078423Y-81679577D01*
X141553091Y-81996740D01*
X141971667Y-82080000D01*
X142084289Y-82080000D01*
X142478001Y-82473712D01*
X142478001Y-84340640D01*
X142462041Y-84333086D01*
X142240000Y-84454371D01*
X142240000Y-85598000D01*
X142260000Y-85598000D01*
X142260000Y-85852000D01*
X142240000Y-85852000D01*
X142240000Y-86995629D01*
X142462041Y-87116914D01*
X142478001Y-87109360D01*
X142478001Y-89414490D01*
X142254333Y-89370000D01*
X141971667Y-89370000D01*
X141553091Y-89453260D01*
X141078423Y-89770423D01*
X140761260Y-90245091D01*
X140649887Y-90805000D01*
X140761260Y-91364909D01*
X141078423Y-91839577D01*
X141553091Y-92156740D01*
X141971667Y-92240000D01*
X142254333Y-92240000D01*
X142478002Y-92195510D01*
X142478002Y-97186477D01*
X142408052Y-97291164D01*
X142327724Y-97695000D01*
X142348000Y-97796935D01*
X142348000Y-98261057D01*
X142113000Y-98612759D01*
X141877576Y-98260423D01*
X141402908Y-97943260D01*
X140843000Y-97831887D01*
X140283091Y-97943260D01*
X139808423Y-98260424D01*
X139573000Y-98612759D01*
X139337576Y-98260423D01*
X138862908Y-97943260D01*
X138303000Y-97831887D01*
X137743091Y-97943260D01*
X137268423Y-98260424D01*
X137030501Y-98616499D01*
X136687896Y-98190500D01*
X136194819Y-97920633D01*
X136112039Y-97903096D01*
X135890000Y-98025085D01*
X135636000Y-98025085D01*
X135413961Y-97903096D01*
X135331181Y-97920633D01*
X134838104Y-98190500D01*
X134495499Y-98616499D01*
X134257576Y-98260423D01*
X133782908Y-97943260D01*
X133223000Y-97831887D01*
X132663091Y-97943260D01*
X132188423Y-98260424D01*
X131953000Y-98612759D01*
X131717576Y-98260423D01*
X131242908Y-97943260D01*
X130683000Y-97831887D01*
X130123091Y-97943260D01*
X129648423Y-98260424D01*
X129413000Y-98612759D01*
X129177576Y-98260423D01*
X128702908Y-97943260D01*
X128143000Y-97831887D01*
X127583091Y-97943260D01*
X127108423Y-98260424D01*
X126873000Y-98612759D01*
X126637576Y-98260423D01*
X126162908Y-97943260D01*
X125603000Y-97831887D01*
X125043091Y-97943260D01*
X124568423Y-98260424D01*
X124333000Y-98612759D01*
X124097576Y-98260423D01*
X123622908Y-97943260D01*
X123063000Y-97831887D01*
X122503091Y-97943260D01*
X122028423Y-98260424D01*
X121793000Y-98612759D01*
X121557576Y-98260423D01*
X121248136Y-98053662D01*
X121266797Y-98035001D01*
X121361065Y-98035001D01*
X121462999Y-98055277D01*
X121564933Y-98035001D01*
X121564934Y-98035001D01*
X121866836Y-97974949D01*
X122209192Y-97746194D01*
X122266936Y-97659774D01*
X122891710Y-97035000D01*
X123388222Y-97035000D01*
X123989153Y-96786086D01*
X124449086Y-96326153D01*
X124698000Y-95725222D01*
X124698000Y-95228710D01*
X128086711Y-91840000D01*
X133498604Y-91840000D01*
X133680138Y-92021534D01*
X134207561Y-92240000D01*
X134778439Y-92240000D01*
X135305862Y-92021534D01*
X135709534Y-91617862D01*
X135928000Y-91090439D01*
X135928000Y-90519561D01*
X135709534Y-89992138D01*
X135305862Y-89588466D01*
X134778439Y-89370000D01*
X134207561Y-89370000D01*
X133680138Y-89588466D01*
X133498604Y-89770000D01*
X129155756Y-89770000D01*
X129647507Y-89566310D01*
X130079310Y-89134507D01*
X130313000Y-88570330D01*
X130313000Y-87959670D01*
X130079310Y-87395493D01*
X129910092Y-87226275D01*
X129925765Y-87223157D01*
X130135809Y-87082809D01*
X130276157Y-86872765D01*
X130298587Y-86760000D01*
X133498604Y-86760000D01*
X133680138Y-86941534D01*
X134207561Y-87160000D01*
X134778439Y-87160000D01*
X135305862Y-86941534D01*
X135709534Y-86537862D01*
X135901655Y-86074039D01*
X140721096Y-86074039D01*
X140881959Y-86462423D01*
X141257866Y-86877389D01*
X141763959Y-87116914D01*
X141986000Y-86995629D01*
X141986000Y-85852000D01*
X140843085Y-85852000D01*
X140721096Y-86074039D01*
X135901655Y-86074039D01*
X135928000Y-86010439D01*
X135928000Y-85439561D01*
X135901656Y-85375961D01*
X140721096Y-85375961D01*
X140843085Y-85598000D01*
X141986000Y-85598000D01*
X141986000Y-84454371D01*
X141763959Y-84333086D01*
X141257866Y-84572611D01*
X140881959Y-84987577D01*
X140721096Y-85375961D01*
X135901656Y-85375961D01*
X135709534Y-84912138D01*
X135305862Y-84508466D01*
X134778439Y-84290000D01*
X134207561Y-84290000D01*
X133680138Y-84508466D01*
X133498604Y-84690000D01*
X130298587Y-84690000D01*
X130276157Y-84577235D01*
X130135809Y-84367191D01*
X129925765Y-84226843D01*
X129678000Y-84177560D01*
X127878000Y-84177560D01*
X127630235Y-84226843D01*
X127420191Y-84367191D01*
X127279843Y-84577235D01*
X127230560Y-84825000D01*
X127230560Y-86625000D01*
X127279843Y-86872765D01*
X127420191Y-87082809D01*
X127630235Y-87223157D01*
X127645908Y-87226275D01*
X127476690Y-87395493D01*
X127243000Y-87959670D01*
X127243000Y-88570330D01*
X127476690Y-89134507D01*
X127908493Y-89566310D01*
X128400244Y-89770000D01*
X127759932Y-89770000D01*
X127657999Y-89749724D01*
X127556066Y-89770000D01*
X127556065Y-89770000D01*
X127254163Y-89830052D01*
X126911807Y-90058807D01*
X126854065Y-90145224D01*
X124098000Y-92901290D01*
X124098000Y-90177239D01*
X124449086Y-89826153D01*
X124698000Y-89225222D01*
X124698000Y-88574778D01*
X124449086Y-87973847D01*
X123989153Y-87513914D01*
X123388222Y-87265000D01*
X122737778Y-87265000D01*
X122136847Y-87513914D01*
X121676914Y-87973847D01*
X121428000Y-88574778D01*
X121428000Y-89225222D01*
X121676914Y-89826153D01*
X122028001Y-90177240D01*
X122028000Y-94122761D01*
X121676914Y-94473847D01*
X121428000Y-95074778D01*
X121428000Y-95571290D01*
X121034289Y-95965001D01*
X120940020Y-95965001D01*
X120838086Y-95944725D01*
X120736151Y-95965001D01*
X120434249Y-96025053D01*
X120091893Y-96253808D01*
X120034151Y-96340225D01*
X116053227Y-100321150D01*
X115966807Y-100378894D01*
X115738053Y-100721250D01*
X115738052Y-100721251D01*
X115657724Y-101125087D01*
X111708000Y-101125087D01*
X111708000Y-96552532D01*
X117590073Y-96552532D01*
X117688736Y-96819387D01*
X118298461Y-97045908D01*
X118948460Y-97021856D01*
X119437264Y-96819387D01*
X119535927Y-96552532D01*
X118563000Y-95579605D01*
X117590073Y-96552532D01*
X111708000Y-96552532D01*
X111708000Y-95135461D01*
X116917092Y-95135461D01*
X116941144Y-95785460D01*
X117143613Y-96274264D01*
X117410468Y-96372927D01*
X118383395Y-95400000D01*
X118742605Y-95400000D01*
X119715532Y-96372927D01*
X119982387Y-96274264D01*
X120208908Y-95664539D01*
X120184856Y-95014540D01*
X119982387Y-94525736D01*
X119715532Y-94427073D01*
X118742605Y-95400000D01*
X118383395Y-95400000D01*
X117410468Y-94427073D01*
X117143613Y-94525736D01*
X116917092Y-95135461D01*
X111708000Y-95135461D01*
X111708000Y-94247468D01*
X117590073Y-94247468D01*
X118563000Y-95220395D01*
X119535927Y-94247468D01*
X119437264Y-93980613D01*
X118827539Y-93754092D01*
X118177540Y-93778144D01*
X117688736Y-93980613D01*
X117590073Y-94247468D01*
X111708000Y-94247468D01*
X111708000Y-90052532D01*
X117590073Y-90052532D01*
X117688736Y-90319387D01*
X118298461Y-90545908D01*
X118948460Y-90521856D01*
X119437264Y-90319387D01*
X119535927Y-90052532D01*
X118563000Y-89079605D01*
X117590073Y-90052532D01*
X111708000Y-90052532D01*
X111708000Y-88635461D01*
X116917092Y-88635461D01*
X116941144Y-89285460D01*
X117143613Y-89774264D01*
X117410468Y-89872927D01*
X118383395Y-88900000D01*
X118742605Y-88900000D01*
X119715532Y-89872927D01*
X119982387Y-89774264D01*
X120208908Y-89164539D01*
X120184856Y-88514540D01*
X119982387Y-88025736D01*
X119715532Y-87927073D01*
X118742605Y-88900000D01*
X118383395Y-88900000D01*
X117410468Y-87927073D01*
X117143613Y-88025736D01*
X116917092Y-88635461D01*
X111708000Y-88635461D01*
X111708000Y-87747468D01*
X117590073Y-87747468D01*
X118563000Y-88720395D01*
X119535927Y-87747468D01*
X119437264Y-87480613D01*
X118827539Y-87254092D01*
X118177540Y-87278144D01*
X117688736Y-87480613D01*
X117590073Y-87747468D01*
X111708000Y-87747468D01*
X111708000Y-80295750D01*
X127243000Y-80295750D01*
X127243000Y-81036309D01*
X127339673Y-81269698D01*
X127518301Y-81448327D01*
X127653044Y-81504139D01*
X127476690Y-81680493D01*
X127243000Y-82244670D01*
X127243000Y-82855330D01*
X127476690Y-83419507D01*
X127908493Y-83851310D01*
X128472670Y-84085000D01*
X129083330Y-84085000D01*
X129647507Y-83851310D01*
X129913817Y-83585000D01*
X132486066Y-83585000D01*
X132588000Y-83605276D01*
X132689934Y-83585000D01*
X132689935Y-83585000D01*
X132991837Y-83524948D01*
X133334193Y-83296193D01*
X133391937Y-83209773D01*
X134521711Y-82080000D01*
X134778439Y-82080000D01*
X135305862Y-81861534D01*
X135709534Y-81457862D01*
X135928000Y-80930439D01*
X135928000Y-80359561D01*
X135709534Y-79832138D01*
X135305862Y-79428466D01*
X134778439Y-79210000D01*
X134207561Y-79210000D01*
X133680138Y-79428466D01*
X133276466Y-79832138D01*
X133058000Y-80359561D01*
X133058000Y-80616289D01*
X132159290Y-81515000D01*
X129913817Y-81515000D01*
X129902956Y-81504139D01*
X130037699Y-81448327D01*
X130216327Y-81269698D01*
X130313000Y-81036309D01*
X130313000Y-80295750D01*
X130154250Y-80137000D01*
X128905000Y-80137000D01*
X128905000Y-80157000D01*
X128651000Y-80157000D01*
X128651000Y-80137000D01*
X127401750Y-80137000D01*
X127243000Y-80295750D01*
X111708000Y-80295750D01*
X111708000Y-78983691D01*
X127243000Y-78983691D01*
X127243000Y-79724250D01*
X127401750Y-79883000D01*
X128651000Y-79883000D01*
X128651000Y-78633750D01*
X128905000Y-78633750D01*
X128905000Y-79883000D01*
X130154250Y-79883000D01*
X130313000Y-79724250D01*
X130313000Y-78983691D01*
X130216327Y-78750302D01*
X130037699Y-78571673D01*
X129804310Y-78475000D01*
X129063750Y-78475000D01*
X128905000Y-78633750D01*
X128651000Y-78633750D01*
X128492250Y-78475000D01*
X127751690Y-78475000D01*
X127518301Y-78571673D01*
X127339673Y-78750302D01*
X127243000Y-78983691D01*
X111708000Y-78983691D01*
X111708000Y-75609666D01*
X111770958Y-75111302D01*
X111939305Y-74686107D01*
X112208101Y-74316142D01*
X112560462Y-74024644D01*
X112974244Y-73829933D01*
X113456662Y-73737907D01*
X113549164Y-73735000D01*
X124296292Y-73735000D01*
X123977026Y-74054266D01*
G04 #@! TD*
M02*
